<svg width="95" height="404" viewBox="0 0 95 404" fill="none" xmlns="http://www.w3.org/2000/svg">
<path d="M37.8338 207.976C45.4818 206.958 53.3977 208.98 59.808 213.472C66.2183 217.964 70.9281 225.035 72.5502 232.966C74.1722 240.897 72.8803 249.623 68.5604 256.561C64.2076 263.55 57.4345 268.529 50.2503 272.147C46.4353 274.065 42.4559 275.644 38.4213 277.031C33.5927 278.696 28.6678 280.085 23.6803 281.184C22.4514 281.456 21.2167 281.706 19.9839 281.946C18.8917 282.154 18.1364 280.884 18.8926 280.024C24.2595 273.924 30.2538 268.434 36.7519 263.614C37.4999 263.058 38.7661 264.02 38.4027 264.92C35.6028 271.857 28.066 273.913 22.6989 278.161C21.2183 279.332 19.9125 280.706 18.9968 282.375L18.3176 280.688C24.8056 282.054 31.1028 284.408 36.9419 287.639C38.6137 288.566 40.2498 289.569 41.8423 290.636C43.0497 291.446 41.9452 293.423 40.7279 292.61C35.298 288.969 29.3804 286.146 23.1638 284.273C21.3703 283.733 19.5609 283.273 17.7344 282.89C17.0086 282.738 16.7254 281.808 17.0552 281.204C20.553 274.842 28.0245 273.086 33.0953 268.529C34.4179 267.342 35.5649 265.967 36.2394 264.286L37.8902 265.591C31.5519 270.292 25.7244 275.69 20.4904 281.64L19.3992 279.718C28.4687 277.974 37.5266 275.411 45.9747 271.636C53.0051 268.494 59.8046 264.303 64.6809 258.147C69.5571 251.99 71.5961 244.45 70.8646 236.695C70.1507 229.112 66.5728 222.019 60.8362 217.095C55.3403 212.375 48.115 209.774 40.9899 209.983C40.134 210.009 39.2733 210.069 38.4225 210.184C37.8239 210.266 37.2211 210.013 37.0483 209.36C36.9052 208.819 37.2317 208.044 37.8358 207.965L37.8338 207.976Z" fill="#136EF6"/>
</svg>
