<svg width="121" height="90" viewBox="0 0 121 90" fill="none" xmlns="http://www.w3.org/2000/svg">
<g clip-path="url(#clip0_1_67)">
<path d="M30.8583 35.1916L36.4923 38.2953L39.2486 39.8148L40.6297 40.5757C40.9703 40.7607 41.5253 40.9885 41.6606 41.1964L41.3396 40.4651L41.3435 40.418L41.6348 39.6101C41.5072 39.8546 40.8089 40.1699 40.5011 40.3494L39.1203 41.1726L36.0109 43.0186L29.9067 46.6482C29.1722 47.0819 28.7713 47.9749 29.132 48.7965C29.4565 49.5361 30.4358 49.9722 31.1724 49.5323L37.8544 45.5578L41.0805 43.6432C42.1192 43.0217 43.6955 42.4212 44.2241 41.2285C44.567 40.4599 44.4947 39.6039 43.9718 38.9588C43.6046 38.5013 43.0678 38.2594 42.5675 37.989L39.3493 36.2199L32.6842 32.5508C31.961 32.1517 31.0592 32.1931 30.5293 32.9704C30.0851 33.6194 30.1328 34.7986 30.8619 35.1998L30.8583 35.1916Z" fill="#F85F4C"/>
<path d="M49.9558 35.3897C53.1549 39.4344 56.9827 42.938 61.2659 45.7067L61.5482 42.9381L47.8106 49.5006L49.0764 52.3847L49.5382 52.0879C50.2582 51.6213 50.6807 50.7776 50.3129 49.9395C49.9991 49.2246 48.9925 48.7371 48.2724 49.2037L47.8106 49.5006C47.0905 49.9672 46.6681 50.8108 47.0359 51.649C47.3857 52.446 48.3072 52.7506 49.0764 52.3847L62.814 45.8223C63.8456 45.3297 64.0638 43.6862 63.0963 43.0537C59.0221 40.4157 55.4132 37.1431 52.3676 33.2921C51.1229 31.7159 48.7286 33.8197 49.9697 35.3877L49.9558 35.3897Z" fill="#F85F4C"/>
<path d="M72.2759 41.2252L82.3996 49.9317L83.0564 47.0353C79.4438 48.2365 75.9182 49.7249 72.5475 51.5666C71.7541 51.9998 70.9679 52.4495 70.1947 52.9177C69.2443 53.4948 68.2884 54.16 68.3656 55.4397C68.4428 56.7195 69.6874 57.4034 70.7868 56.8869C71.8862 56.3703 72.1983 55.0857 71.4947 54.1403C70.2945 52.5317 67.8943 54.6335 69.0967 56.2359L69.1488 56.3101L68.9061 54.7424L68.8796 54.8158L69.359 54.1241L69.7871 53.8842L70.5888 53.9382L70.4957 53.9046L71.1474 54.3748L71.0939 54.2863L71.4299 55.4311L71.438 55.2265L71.1467 56.0345C71.3116 55.7412 72.0943 55.4286 72.3941 55.2531C72.8609 54.9788 73.3371 54.7148 73.8111 54.4569C74.8817 53.8746 75.9688 53.319 77.0682 52.8025C79.189 51.8035 81.358 50.9256 83.5665 50.1934C84.865 49.7625 85.2822 48.2045 84.2234 47.297L74.1004 38.5701C73.4695 38.0244 72.4067 38.312 71.9456 38.9896C71.4201 39.7546 71.6472 40.6734 72.2781 41.2191L72.2759 41.2252Z" fill="#F85F4C"/>
</g>
<defs>
<clipPath id="clip0_1_67">
<rect width="56.5073" height="25.4144" fill="white" transform="translate(33.7281 23.9357) rotate(19.8287)"/>
</clipPath>
</defs>
</svg>
