<svg width="69" height="90" viewBox="0 0 69 90" fill="none" xmlns="http://www.w3.org/2000/svg">
<g clip-path="url(#clip0_1_139)">
<path d="M18.479 54.6857L23.2463 55.0766L25.579 55.2686L26.7476 55.3644C27.035 55.3863 27.481 55.3719 27.636 55.4718L27.1957 55.0733L27.1839 55.0402L27.1357 54.4034C27.1235 54.6081 26.7457 55.0346 26.5915 55.2501L25.9052 56.2289L24.3575 58.4278L21.3206 62.7485C20.9543 63.2663 20.9541 63.9942 21.4489 64.4419C21.8942 64.8449 22.6913 64.8427 23.0573 64.3201L26.3811 59.5895L27.9872 57.3085C28.5028 56.5707 29.3895 55.6834 29.3851 54.7133C29.3838 54.0874 29.0741 53.5286 28.523 53.2501C28.1347 53.0515 27.6968 53.0507 27.2751 53.0196L24.5531 52.7989L18.9141 52.3382C18.3019 52.2875 17.7027 52.5901 17.5797 53.2788C17.4759 53.8544 17.8672 54.6399 18.484 54.6902L18.479 54.6857Z" fill="#F85F4C"/>
<path d="M31.4968 49.007C34.8985 50.7775 38.562 51.9896 42.3109 52.5644L41.6597 50.6L34.3364 59.2341L36.0732 60.8057L36.2961 60.4637C36.6426 59.9279 36.6725 59.2269 36.1678 58.7702C35.7373 58.3807 34.9059 58.3563 34.5594 58.8921L34.3364 59.2341C33.9899 59.7698 33.9601 60.4708 34.4648 60.9275C34.9447 61.3618 35.6627 61.288 36.0732 60.8057L43.3964 52.1716C43.9464 51.5233 43.5942 50.3418 42.7452 50.2072C39.178 49.6575 35.7332 48.5356 32.4947 46.8498C31.1704 46.1592 30.1862 48.3154 31.5056 49.0015L31.4968 49.007Z" fill="#F85F4C"/>
<path d="M48.4169 46.1724L57.9358 48.9982L57.4999 46.8331C55.4144 48.7477 53.4753 50.8307 51.749 53.1063C51.3425 53.6417 50.9459 54.1861 50.5638 54.7391C50.0947 55.42 49.6486 56.1623 50.0905 57.0071C50.5324 57.8518 51.585 57.9371 52.1737 57.2519C52.7624 56.5668 52.5832 55.6002 51.818 55.173C50.514 54.4469 49.5253 56.6035 50.8289 57.3247L50.8868 57.3592L50.245 56.3694L50.2493 56.4273L50.364 55.8121L50.5815 55.519L51.1418 55.3116L51.0685 55.3171L51.6537 55.4377L51.5905 55.394L52.167 56.0685L52.1102 55.9272L52.1585 56.5641C52.1811 56.3149 52.617 55.8645 52.767 55.6542C53.0002 55.326 53.2429 55.0019 53.486 54.6826C54.0351 53.9617 54.6037 53.2539 55.1924 52.5687C56.3272 51.2454 57.5317 49.9896 58.8072 48.8205C59.557 48.1329 59.3659 46.9489 58.3713 46.6555L48.8466 43.8156C48.2524 43.6374 47.6189 44.1561 47.5123 44.7562C47.3886 45.4352 47.8223 45.9894 48.4165 46.1676L48.4169 46.1724Z" fill="#F85F4C"/>
</g>
<defs>
<clipPath id="clip0_1_139">
<rect width="42.0209" height="18.8991" fill="white" transform="translate(17 46.1752) rotate(-4.33351)"/>
</clipPath>
</defs>
</svg>
