<svg width="160" height="90" viewBox="0 0 160 90" fill="none" xmlns="http://www.w3.org/2000/svg">
<g clip-path="url(#clip0_1_141)">
<path d="M84.4302 49.0747C84.5383 48.2475 84.6101 47.4231 84.7524 46.6C84.8799 45.8628 84.9616 45.1216 84.9592 44.3716C84.9582 44.056 84.8625 43.7497 84.8102 43.4402C84.7522 43.0975 84.6922 42.7323 84.4842 42.4424C84.2909 42.1735 84.0116 42.0194 83.7018 41.923C83.3459 41.8122 82.9852 41.6745 82.6239 41.5859C82.2635 41.4974 81.8915 41.5602 81.5255 41.5222C81.0961 41.4776 80.671 41.3885 80.2458 41.3146C79.4376 41.1741 78.6326 41.1785 77.8237 41.049C77.3496 40.9731 76.8764 40.8932 76.4031 40.8127C75.9912 40.7425 75.5569 40.7243 75.1661 40.5702C74.9623 40.4898 74.7698 40.4001 74.5525 40.3601C74.3585 40.3245 74.1683 40.3314 73.9822 40.2587C73.5952 40.1076 73.2582 39.9983 72.8411 39.9397C72.4268 39.8813 72.0195 39.8061 71.6 39.818C71.361 39.8248 71.1539 39.7859 70.9486 39.73C70.8999 39.7154 70.851 39.7015 70.8019 39.6877C70.6702 39.6476 70.5366 39.6035 70.3927 39.5616C69.9603 39.4358 69.4957 39.3535 69.028 39.3138C68.5102 39.2179 67.9928 39.1091 67.4713 39.0389C66.8814 38.9595 66.2862 38.9303 65.6994 38.8258C64.5997 38.6299 63.5247 38.3212 62.4023 38.2758C61.8207 38.2522 61.2308 38.1717 60.6503 38.1113C60.3939 38.0847 60.146 38.0853 59.8892 38.0845C59.5558 38.0832 59.2405 37.9859 58.9084 37.9687C58.3949 37.9421 57.8763 37.963 57.367 37.9265C57.1437 37.9106 56.9203 37.903 56.697 37.8887C56.4259 37.8715 56.1548 37.7844 55.8845 37.7865C55.4633 37.7898 55.1847 38.0647 55.1094 38.4714C55.029 38.9055 54.8797 39.3193 54.761 39.7508C54.4744 40.7932 54.1668 41.8261 53.8838 42.8725C53.5681 44.0403 53.4336 45.2842 53.2178 46.475C52.7836 48.8719 52.3605 51.2709 51.9323 53.6689C51.7145 54.8894 51.5141 56.1142 51.2535 57.3265C51.1433 57.8395 51.0313 58.3553 50.9872 58.8791C50.9679 59.1084 50.9709 59.3369 50.9631 59.5664C50.9518 59.8958 50.8845 60.2277 50.9081 60.5581C50.9369 60.9632 51.0613 61.4972 51.3455 61.8023C51.6763 62.1574 52.2389 62.2489 52.6719 62.44C53.1118 62.6341 53.584 62.8117 54.0499 62.9335C54.6357 63.0867 55.2558 63.0958 55.841 63.2496C56.3491 63.3831 56.8116 63.5736 57.3377 63.6614C57.9187 63.7584 58.5009 63.8198 59.0644 63.9997C59.5842 64.1656 60.0439 64.1324 60.5782 64.1964C60.9418 64.2398 61.3034 64.3158 61.6644 64.3913C61.6622 64.3973 61.6593 64.4023 61.6575 64.4087C61.4758 65.005 61.2946 65.5931 61.1555 66.2008C61.0714 66.5681 60.8805 67.09 60.9031 67.5239C60.7403 67.4651 60.5691 67.4185 60.3777 67.382C59.9149 67.294 59.4296 67.1692 58.9559 67.1914C58.7667 67.2003 58.5852 67.2458 58.4009 67.2844C58.2059 67.3254 58.0019 67.3129 57.8103 67.3623C57.3893 67.4708 57.2896 67.7607 57.3308 68.1486C57.3666 68.4848 57.2347 68.8224 57.3513 69.1537C57.4924 69.5546 57.8693 69.749 58.273 69.7738C58.4888 69.787 58.703 69.7593 58.9181 69.7853C59.1588 69.8142 59.3994 69.8815 59.6373 69.9286C60.1665 70.0333 60.698 70.1281 61.2379 70.1537C62.2826 70.2034 63.2849 70.3895 64.3041 70.6309C64.772 70.7417 65.2108 70.9125 65.6875 70.9952C66.2558 71.0937 66.8224 71.2038 67.392 71.2947C67.8969 71.3752 68.4054 71.4325 68.9172 71.4338C69.3403 71.435 69.7415 71.5655 70.1609 71.565C70.9894 71.5642 71.0533 70.7122 71.1231 70.0716C71.1595 69.738 71.1369 69.3433 70.8712 69.1021C70.7333 68.9767 70.571 68.9317 70.3905 68.9197C70.1059 68.9008 69.8305 68.8931 69.547 68.8529C69.1571 68.7978 68.7687 68.8321 68.3814 68.813C68.5418 68.5521 68.617 68.2281 68.6626 67.9353C68.7358 67.4663 68.6555 66.9877 68.7419 66.523C68.8029 66.1949 68.9368 65.8497 68.8401 65.531C69.3165 65.6017 69.795 65.7197 70.2605 65.8019C71.603 66.0393 72.9456 66.2767 74.2881 66.514C74.7605 66.5975 75.2312 66.6748 75.7046 66.7413C75.7294 66.7681 75.7617 66.7917 75.8035 66.8093C76.1016 66.9341 76.4295 66.9466 76.7428 67.0172C77.1607 67.1115 77.5789 67.2034 77.9977 67.2937C78.3439 67.3683 78.6702 67.3892 79.0193 67.4283C79.3663 67.4674 79.6691 67.5157 79.9787 67.308C80.4488 66.9926 80.6728 66.3525 80.8428 65.8385C81.0932 65.0817 81.1653 64.2733 81.3023 63.4911C81.4514 62.6391 81.5999 61.7871 81.75 60.9354C81.8155 60.5647 81.8642 60.1866 81.9603 59.8222C82.0595 59.4462 82.2147 59.0897 82.2711 58.7034C82.2988 58.514 82.3083 58.348 82.3813 58.1703C82.4471 58.0102 82.5215 57.8626 82.5687 57.6945C82.6867 57.2755 82.7065 56.8356 82.7851 56.409C82.931 55.6165 83.2872 54.8817 83.4385 54.0891C83.5978 53.2534 83.8479 52.4386 83.9978 51.6011C84.1479 50.7613 84.3197 49.92 84.4302 49.0747ZM68.3468 69.4875C68.7336 69.5293 69.106 69.4841 69.4948 69.55C69.679 69.5812 69.8609 69.6116 70.0476 69.6236C70.2268 69.6352 70.3558 69.5626 70.4161 69.7327C70.4828 69.9206 70.3775 70.2415 70.3532 70.4341C70.3421 70.5216 70.3447 70.7787 70.2577 70.8427C70.1691 70.9079 69.904 70.823 69.8105 70.8049C69.0313 70.6533 68.2285 70.7143 67.4389 70.5878C66.6043 70.4541 65.7307 70.3515 64.9257 70.0924C64.1831 69.8534 63.3833 69.7072 62.6143 69.5742C61.8106 69.435 60.9965 69.4869 60.1902 69.3461C59.8052 69.2789 59.4217 69.1761 59.0345 69.1253C58.7606 69.0892 58.1038 69.2415 57.992 68.9042C57.9418 68.7534 58.022 68.5375 58.0334 68.3828C58.0382 68.3205 58.0427 68.2501 58.0399 68.1888C58.0378 68.1372 58.032 68.0861 58.0223 68.0356C58.0107 67.9695 58.0119 67.9737 58.0256 68.0481C58.1343 67.9984 58.3666 68.0197 58.4941 67.9914C58.6692 67.9524 58.843 67.9064 59.0231 67.8984C59.4732 67.8784 59.9542 68.0216 60.398 68.0919C60.7864 68.1534 61.1743 68.3259 61.5667 68.2638C61.6133 68.2564 61.6499 68.2379 61.6774 68.213C61.7324 68.2419 61.7866 68.2728 61.8473 68.2928C62.074 68.3677 62.3012 68.2789 62.5331 68.2911C62.83 68.3069 63.1274 68.377 63.4172 68.4394C64.2939 68.6282 65.1919 68.7405 66.0771 68.8993C66.0671 69.0041 66.1233 69.1122 66.2662 69.1442C66.6446 69.229 67.0145 69.1002 67.3784 69.2536C67.6903 69.3849 68.0099 69.4512 68.3468 69.4875ZM62.2216 64.5076C62.2217 64.5057 62.2214 64.5041 62.2217 64.5022C62.2456 64.5066 62.2695 64.5114 62.2935 64.5156C63.6464 64.7548 65.0029 64.9794 66.351 65.2441C66.9798 65.3675 67.5807 65.4464 68.2173 65.4708C68.2106 65.5308 68.2238 65.5952 68.2676 65.659C68.3721 65.8111 68.2388 66.116 68.2005 66.2795C68.1506 66.4923 68.1266 66.7053 68.1217 66.924C68.1126 67.3442 68.1304 67.7422 68.017 68.1533C67.9819 68.2808 67.9236 68.5431 67.7924 68.6134C67.7359 68.6436 67.6586 68.645 67.5742 68.6324C67.4834 68.5985 67.3916 68.5684 67.2953 68.5554C67.2879 68.5544 67.2807 68.5542 67.2735 68.5533C67.2021 68.5303 67.1366 68.5088 67.086 68.498C66.4349 68.3581 65.7705 68.2644 65.115 68.1466C64.4893 68.0341 63.873 67.8948 63.2512 67.7649C62.9652 67.7053 62.6556 67.6376 62.3621 67.6492C62.238 67.6541 62.1446 67.6895 62.0189 67.6462C61.9314 67.616 61.8556 67.5445 61.765 67.5117C61.7379 67.5019 61.6798 67.4792 61.6226 67.4636C61.6256 67.4135 61.6306 67.3636 61.6383 67.3137C61.6721 67.026 61.7463 66.7441 61.8037 66.4607C61.9335 65.8191 62.1632 65.1568 62.2216 64.5076ZM79.7007 65.8156C79.647 65.9442 79.5112 66.3618 79.405 66.3975C79.3309 66.4225 79.1008 66.3499 79.007 66.3518C78.8168 66.3559 78.6473 66.3918 78.4557 66.3704C78.4135 66.3657 78.3713 66.3598 78.329 66.3547C78.3077 66.3378 78.2837 66.3228 78.2539 66.3119C77.8286 66.1567 77.3846 66.1843 76.9471 66.0922C76.3721 65.971 75.8117 65.7983 75.2316 65.6963C74.0951 65.4964 72.9586 65.2966 71.822 65.0967C71.3056 65.0059 70.7893 64.915 70.2731 64.8243C69.6675 64.7177 69.044 64.558 68.4298 64.5205C67.9068 64.4886 67.4166 64.4684 66.8966 64.3709C66.3089 64.2606 65.7225 64.1468 65.1337 64.0431C63.9948 63.8428 62.849 63.6654 61.7155 63.4376C61.2102 63.336 60.7196 63.2294 60.2021 63.2205C59.6534 63.211 59.2053 63.0184 58.6731 62.9089C58.141 62.7993 57.5973 62.7523 57.0646 62.6434C56.5064 62.5295 55.9963 62.307 55.4269 62.2114C54.9839 62.1371 54.5198 62.0915 54.0947 61.943C53.5823 61.764 53.0967 61.5269 52.5876 61.3442C52.4363 61.2899 52.1693 61.2576 52.0638 61.1325C51.9678 61.0188 51.9349 60.7538 51.9132 60.6064C51.8712 60.3209 51.9373 60.0366 51.9532 59.7517C51.9686 59.4716 51.9622 59.1933 51.9923 58.9137C52.0262 58.5975 52.0756 58.2824 52.1321 57.9681C52.8718 58.1414 53.6543 58.181 54.3965 58.333C54.8261 58.421 55.208 58.5741 55.626 58.6906C56.1024 58.8233 56.6146 58.8743 57.1014 58.9626C58.1151 59.1461 59.1281 59.3329 60.1426 59.5121C61.0465 59.6718 61.9773 59.943 62.8944 59.9922C63.8584 60.044 64.7654 60.2668 65.7171 60.4055C66.1598 60.4701 66.596 60.4546 67.0404 60.483C67.53 60.5144 68.0142 60.6106 68.4936 60.7103C69.4557 60.9106 70.4213 61.0821 71.3891 61.2529C71.8469 61.3337 72.3054 61.4116 72.7625 61.4959C73.2382 61.5834 73.6885 61.7514 74.1574 61.865C74.6462 61.9833 75.1481 62.034 75.6415 62.1284C76.2037 62.2359 76.7555 62.3885 77.3123 62.5193C78.2899 62.7489 79.2928 62.917 80.2878 63.0728C80.2647 63.2024 80.2418 63.3321 80.2186 63.4618C80.0783 64.2536 80.0129 65.0677 79.7007 65.8156ZM82.7923 52.2546C82.6064 53.0127 82.4772 53.8008 82.2506 54.5462C82.0335 55.2598 81.783 55.9339 81.678 56.6765C81.6259 57.044 81.5729 57.3759 81.4253 57.7155C81.269 58.0753 81.2699 58.4357 81.1743 58.8083C81.0968 59.1101 80.972 59.3988 80.8964 59.7016C80.8048 60.0687 80.7547 60.4481 80.6881 60.8204C80.5869 61.3867 80.4867 61.9532 80.3862 62.5197C79.5217 62.3613 78.6505 62.2357 77.7906 62.0546C76.8409 61.8545 75.9119 61.6031 74.9523 61.4496C74.0126 61.2993 73.1113 60.9928 72.1725 60.8273C71.2184 60.6591 70.2589 60.5098 69.3094 60.3171C68.4192 60.1365 67.5489 59.9369 66.6365 59.9246C65.6464 59.9112 64.706 59.5994 63.7278 59.4899C63.269 59.4385 62.8119 59.4547 62.3556 59.3729C61.8771 59.2871 61.4036 59.1775 60.9246 59.0931C59.9423 58.9202 58.9597 58.75 57.9767 58.5813C57.4278 58.4871 56.8792 58.3892 56.3296 58.3C55.8171 58.2169 55.3503 58.0086 54.8405 57.9321C53.9573 57.7995 53.0789 57.6914 52.1895 57.6581C52.3134 57.018 52.4599 56.3802 52.5711 55.7415L53.7885 48.7503C53.9925 47.5786 54.1996 46.4076 54.4057 45.2362C54.4971 44.7161 54.5855 44.1955 54.6744 43.6749C54.7712 43.1073 54.9668 42.5692 55.0841 42.0068C55.1835 41.5303 55.3367 41.0682 55.4598 40.5974C55.5758 40.1536 55.7039 39.6794 55.8821 39.2584C55.937 39.1287 56.0415 38.8901 56.0056 38.7384C56.0057 38.7375 56.0058 38.7366 56.0059 38.7356C56.0921 38.7553 56.2256 38.7622 56.2637 38.7671C56.7342 38.8263 57.2556 38.8722 57.7296 38.8506C58.0167 38.8375 58.29 38.8484 58.5771 38.8598C58.9199 38.8734 59.2431 38.9449 59.5828 38.9734C60.1616 39.0219 60.7495 39.0013 61.3314 39.0466C62.5645 39.1424 63.7688 39.2858 64.9875 39.5157C66.2173 39.7477 67.4692 39.8241 68.7046 40.0309C68.867 40.0581 69.0298 40.0849 69.1927 40.1118C69.377 40.1528 69.5631 40.1895 69.7505 40.2235C70.0987 40.2864 70.4057 40.4081 70.7404 40.5161C71.076 40.6245 71.3861 40.6176 71.733 40.6179C71.7489 40.6179 71.765 40.619 71.7809 40.6194C71.9001 40.6504 72.0191 40.6819 72.1373 40.7162C72.2155 40.7387 72.2764 40.7194 72.318 40.6787C72.4705 40.7047 72.6222 40.7344 72.771 40.7586C73.1476 40.8198 73.4432 40.9607 73.7977 41.0774C74.0887 41.1732 74.3941 41.1592 74.6801 41.2737C75.0208 41.4101 75.3336 41.507 75.6985 41.5617C76.4913 41.6803 77.2757 41.8445 78.0637 41.9904C78.4243 42.0571 78.7728 42.0588 79.1364 42.0824C79.4802 42.1048 79.8182 42.2018 80.1547 42.2703C80.5282 42.3461 80.9012 42.4325 81.2791 42.4837C81.6615 42.5356 82.0776 42.4766 82.4484 42.5788C82.7355 42.658 83.0196 42.7821 83.3056 42.871C83.663 42.9822 83.7202 43.1787 83.7806 43.5376C83.8298 43.8293 83.9232 44.1225 83.9276 44.4196C83.9327 44.747 83.8991 45.0873 83.8849 45.4156C83.853 46.1523 83.6283 46.8869 83.5432 47.6207C83.3636 49.1715 83.165 50.7354 82.7923 52.2546Z" fill="black"/>
<path d="M82.329 45.3984C82.4588 44.9854 82.9861 44.5367 82.5817 44.0874C82.3138 43.7897 81.8334 43.8468 81.4735 43.8457C81.1813 43.8447 80.915 43.7548 80.6298 43.6981C80.1905 43.6108 79.7468 43.5448 79.3078 43.4545C78.9634 43.3837 78.6198 43.2766 78.2641 43.3038C77.8874 43.3327 77.5644 43.2459 77.1892 43.2322C75.6068 43.174 74.0372 42.7415 72.4685 42.5221C72.0915 42.4693 71.7124 42.4134 71.3453 42.3105C70.9603 42.2025 70.6298 42.0444 70.2247 42.0194C69.4426 41.9709 68.6888 41.8599 67.9177 41.7142C67.5217 41.6393 67.1561 41.4412 66.752 41.4223C66.2946 41.4009 65.8714 41.3848 65.4171 41.3039C64.527 41.1453 63.6738 40.8844 62.7815 40.7274C62.3091 40.6441 61.8576 40.6315 61.3821 40.5944C60.9221 40.5584 60.4626 40.4466 60.0083 40.3678C59.025 40.1972 58.044 40.0962 57.0569 39.9652C57.0548 39.9649 57.0533 39.9656 57.0513 39.9656C57.0426 39.9341 57.0335 39.9026 57.0226 39.8713C56.9921 39.7836 56.8553 39.8149 56.8644 39.9074C56.8967 40.2367 56.8067 40.5441 56.7389 40.8629C56.6652 41.2087 56.6048 41.5564 56.5383 41.9036C56.4771 42.2222 56.3504 42.5123 56.2548 42.8203C56.1619 43.1194 56.1559 43.392 56.1594 43.7005C56.1627 43.9993 56.0844 44.2886 56.0695 44.5871C56.0529 44.919 56.0417 45.2421 55.9855 45.5707C55.8716 46.2369 55.7102 46.896 55.5893 47.5615C55.3433 48.9154 55.0829 50.253 54.9648 51.6237C54.9079 52.285 54.7541 52.9452 54.6399 53.5986C54.5223 54.2706 54.4024 54.9421 54.2758 55.6121C54.0642 56.7329 55.508 56.7098 56.2626 56.843C56.9064 56.9567 57.5725 57.1468 58.2237 57.1956C58.5395 57.2192 58.8566 57.2059 59.1718 57.242C59.528 57.2827 59.8798 57.366 60.233 57.4263C60.873 57.5355 61.5266 57.5085 62.1611 57.6289C62.8116 57.7523 63.4506 57.7643 64.105 57.8458C65.4553 58.014 66.7857 58.3135 68.1211 58.569C71.2878 59.1747 74.4713 59.7041 77.6464 60.264C77.7838 60.2882 77.8804 60.2169 77.9259 60.1191C78.1929 60.1967 78.4344 60.3736 78.7206 60.3777C79.3741 60.3868 79.4655 59.7774 79.6519 59.3004C79.922 58.61 80.107 57.8572 80.2709 57.1314C80.4526 56.3261 80.5762 55.5061 80.7167 54.6927C80.8631 53.8451 80.9873 52.9897 81.1553 52.1461C81.2278 51.7814 81.3895 51.4438 81.4645 51.0792C81.5374 50.725 81.6104 50.3711 81.6864 50.0174C81.8576 49.2199 81.8117 48.4635 81.8649 47.6575C81.9173 46.8664 82.0927 46.1504 82.329 45.3984ZM60.4189 40.8353C60.42 40.8372 60.4205 40.8391 60.4216 40.841C60.507 40.9887 60.3546 41.3015 60.2836 41.4329C60.2305 41.5311 60.1813 41.6344 60.1577 41.7404C59.8912 41.7214 59.624 41.7139 59.358 41.6871C59.3939 41.5891 59.3958 41.4788 59.4108 41.3611C59.4402 41.1302 59.4612 40.9002 59.4766 40.6681C59.4771 40.6624 59.4755 40.658 59.4751 40.6528C59.7888 40.7107 60.1032 40.7763 60.4189 40.8353ZM59.3259 40.6247C59.3234 40.6299 59.3202 40.6341 59.3184 40.6402C59.2535 40.8635 59.1945 41.0869 59.1432 41.3139C59.1157 41.4355 59.0779 41.5446 59.0824 41.6544C58.7123 41.6079 58.3353 41.5583 57.981 41.4449C57.9819 41.4403 57.983 41.4367 57.9839 41.4318C57.9956 41.3662 58.0015 41.3079 58.0352 41.2491C58.0532 41.2177 58.0834 41.1961 58.1015 41.1644C58.1499 41.08 58.145 40.9837 58.1717 40.8926C58.1998 40.7968 58.2491 40.7185 58.2678 40.6184C58.2896 40.5026 58.1226 40.4789 58.0912 40.5873C58.0621 40.6877 57.9941 40.778 57.9555 40.8755C57.9122 40.985 57.8793 41.0375 57.8196 41.1228C57.7719 41.1912 57.7458 41.2724 57.738 41.3556C57.6381 41.3151 57.5516 41.2819 57.4339 41.2782C57.3758 41.2765 57.0423 41.3584 57.0346 41.2424C57.0335 41.2266 57.0282 41.2143 57.0212 41.2038C57.0912 40.8445 57.1475 40.4824 57.0871 40.1263C57.8352 40.2926 58.5712 40.4848 59.3259 40.6247ZM81.9967 45.0495C81.8611 45.3642 81.7574 45.7243 81.6688 46.0562C81.4827 46.7521 81.4161 47.4973 81.4063 48.2161C81.3961 48.9568 81.3112 49.6213 81.1462 50.3439C80.9863 51.0435 80.7551 51.722 80.6301 52.4277C80.4738 53.3097 80.3116 54.1906 80.153 55.0721C79.9998 55.9229 79.9179 56.802 79.7195 57.6428C79.6315 58.0161 79.5234 58.4474 79.3969 58.8097C79.3345 58.9885 79.2209 59.1428 79.1553 59.3214C79.1091 59.4472 79.0899 59.592 79.0215 59.7089C78.7388 60.1927 78.2493 59.7646 77.8717 59.6991C77.7041 59.67 77.5322 59.6632 77.3597 59.664C74.7741 59.2084 72.1879 58.7564 69.6017 58.3042C68.277 58.0725 66.9604 57.798 65.6361 57.5651C64.9894 57.4513 64.3338 57.3314 63.6774 57.2967C63.3871 57.2814 63.0963 57.279 62.8083 57.2355C62.4806 57.1859 62.1602 57.0941 61.8292 57.0656C61.1912 57.0107 60.5744 56.9752 59.9418 56.8589C59.3056 56.7422 58.667 56.7675 58.0344 56.6645C57.3962 56.5605 56.7606 56.4186 56.1231 56.3062C55.8616 56.2601 55.6001 56.2192 55.3381 56.1777C55.0256 56.128 54.7311 56.0817 54.774 55.6997C54.9184 54.4108 55.311 53.1461 55.4563 51.8549C55.5257 51.2376 55.5601 50.633 55.6688 50.0192C55.7899 49.3345 55.9048 48.6488 56.0222 47.9634C56.1464 47.2389 56.2987 46.5209 56.4278 45.7977C56.4867 45.4683 56.5098 45.1434 56.5006 44.8091C56.4919 44.49 56.5404 44.1802 56.5447 43.863C56.5506 43.4223 56.5515 43.084 56.6956 42.6531C56.7986 42.3454 56.8683 42.0494 56.9213 41.7287C56.9363 41.6375 56.9539 41.5458 56.9721 41.4539C56.9987 41.4671 57.031 41.4767 57.0714 41.4827C57.2143 41.5039 57.3503 41.4306 57.4986 41.4569C57.5863 41.4724 57.6707 41.5102 57.7543 41.5499C57.7614 41.5767 57.7696 41.603 57.7805 41.6279C57.7991 41.6705 57.8555 41.6844 57.8876 41.6468C57.8955 41.6375 57.9011 41.6289 57.9078 41.62C57.928 41.6284 57.9483 41.636 57.9686 41.6427C58.669 41.8747 59.4185 41.8587 60.1477 41.9262C60.1541 41.9768 60.1684 42.0276 60.1939 42.0785C60.2327 42.1561 60.3207 42.175 60.3839 42.112C60.4279 42.068 60.4566 42.0175 60.4784 41.9641C60.4998 41.9671 60.5213 41.9697 60.5426 41.9729C61.3946 42.102 62.253 42.2583 63.0998 42.4172C63.4553 42.484 63.7651 42.6757 64.1268 42.7474C64.6211 42.8453 65.1209 42.9117 65.6181 42.9931C66.4034 43.1215 67.1233 43.4583 67.9232 43.4613C68.3357 43.4629 68.7149 43.5893 69.1244 43.606C69.5605 43.6237 69.9934 43.6272 70.4168 43.7451C70.8083 43.8539 71.1705 43.9873 71.5735 44.0563C72.0716 44.1416 72.5685 44.234 73.0657 44.3246C73.4745 44.399 73.8865 44.4473 74.2952 44.5196C74.7072 44.5925 75.0933 44.7702 75.5003 44.8689C76.4807 45.1064 77.4918 45.2489 78.4836 45.4319C78.9661 45.5209 79.4307 45.5652 79.9191 45.5942C80.4623 45.6263 81.0034 45.7522 81.539 45.8453C81.7105 45.8752 81.7578 45.6095 81.586 45.5788C81.1649 45.5038 80.744 45.4163 80.3208 45.355C79.9026 45.2944 79.4787 45.3164 79.0608 45.2504C78.1773 45.1111 77.2961 44.9492 76.4135 44.8032C76.0293 44.7396 75.6454 44.6784 75.2705 44.5708C74.8529 44.451 74.4862 44.3138 74.0532 44.2567C73.1592 44.1389 72.2592 43.9815 71.3743 43.8076C71.013 43.7366 70.6757 43.5884 70.3179 43.5056C69.9636 43.4238 69.5991 43.4207 69.2375 43.4094C68.8747 43.398 68.5361 43.2802 68.177 43.2631C67.9555 43.2526 67.7334 43.2863 67.512 43.2625C67.2484 43.2343 66.9979 43.1433 66.7478 43.0608C65.9613 42.8011 65.1253 42.749 64.3146 42.5961C63.9575 42.5289 63.6657 42.3783 63.3262 42.2749C62.9341 42.1554 62.4889 42.1309 62.0845 42.0592C61.5814 41.9701 61.0806 41.8627 60.5758 41.7846C60.5629 41.7826 60.5501 41.7813 60.5373 41.7795C60.5475 41.7449 60.5586 41.7103 60.5726 41.6765C60.6197 41.5633 60.6729 41.4656 60.6959 41.3427C60.7216 41.2062 60.7408 41.035 60.7072 40.8861C61.0225 40.9389 61.3389 40.9802 61.657 40.9927C62.4558 41.024 63.3329 41.1642 64.0907 41.422C64.753 41.6473 65.5197 41.826 66.2203 41.8527C66.5778 41.8663 66.8434 41.8609 67.1853 41.9857C67.5138 42.1057 67.8448 42.1805 68.1873 42.2493C68.5422 42.3206 68.8941 42.4115 69.2516 42.4685C69.6098 42.5254 69.97 42.4999 70.328 42.5453C70.6708 42.5889 70.9895 42.7518 71.3231 42.8397C71.6925 42.9372 72.072 42.9911 72.4497 43.0441C73.204 43.1499 73.9523 43.2859 74.7023 43.4178C75.3951 43.5397 76.1109 43.7295 76.8157 43.7444C77.1431 43.7513 77.4322 43.7941 77.7525 43.8438C78.1034 43.8983 78.4356 43.7987 78.7925 43.8694C79.5475 44.0186 80.298 44.1934 81.0658 44.2608C81.3341 44.2843 82.0978 44.1483 82.2691 44.38C82.4169 44.5803 82.0722 44.8742 81.9967 45.0495Z" fill="black"/>
<path d="M67.4971 61.8115C67.3345 61.198 66.2403 60.3222 65.6981 60.9737C65.6937 60.979 65.6905 60.9846 65.6867 60.9901C65.5539 60.9319 65.3871 60.9278 65.266 60.9796C64.8931 61.1389 64.758 61.693 64.6841 62.0447C64.6214 62.3435 64.5331 62.6844 64.7515 62.9407C64.8497 63.0558 64.9832 63.1142 65.1117 63.1873C65.3319 63.3126 65.5275 63.4581 65.7269 63.6147C65.8456 63.7079 65.9829 63.6823 66.088 63.585C66.2704 63.4161 66.5777 63.4579 66.7903 63.3412C66.9614 63.2471 67.0623 63.0887 67.1628 62.9248C67.2968 62.7067 67.4066 62.4383 67.4864 62.1989C67.5328 62.0603 67.536 61.9583 67.4971 61.8115ZM67.1079 62.1953C67.0564 62.3396 67.0729 62.5267 66.995 62.6573C66.88 62.85 66.6761 62.9199 66.4685 62.961C66.2794 62.9986 66.0946 63.0273 65.9247 63.1041C65.7578 62.9612 65.5783 62.8362 65.3822 62.7328C65.3096 62.6946 65.1702 62.6598 65.1307 62.5794C65.0815 62.4793 65.1697 62.2246 65.1874 62.1335C65.2217 61.9581 65.2586 61.7837 65.3432 61.6246C65.4463 61.4307 65.5106 61.4209 65.6927 61.3641C65.7356 61.3507 65.8179 61.3301 65.8627 61.2885C65.8785 61.2869 65.8946 61.284 65.911 61.278C66.1184 61.2021 66.6119 61.4121 66.787 61.526C66.8954 61.5965 66.9845 61.7254 67.0602 61.8286C67.1834 61.9961 67.1721 62.0156 67.1079 62.1953Z" fill="black"/>
<path d="M58.1957 53.5484C58.1041 53.4916 57.9991 53.4155 57.8805 53.3202C57.7608 53.2314 57.6517 53.1207 57.5532 52.9883C57.4547 52.8558 57.3865 52.705 57.3486 52.5359C57.3165 52.3339 57.3036 52.1387 57.3097 51.9502C57.3225 51.7629 57.3535 51.5484 57.4029 51.3066C57.4631 50.9652 57.5382 50.6739 57.6281 50.4325C57.7258 50.1857 57.8503 49.9402 58.0017 49.6962C58.0183 49.6788 58.0511 49.627 58.1001 49.5409C58.1569 49.4494 58.2181 49.3518 58.2837 49.2483C58.3559 49.146 58.4104 49.0676 58.447 49.0131C58.5192 48.9108 58.6241 48.7769 58.7615 48.6116C58.9067 48.4409 59.0573 48.2779 59.2133 48.1226C59.4535 47.8739 59.6549 47.6725 59.8174 47.5184C59.9811 47.3577 60.1331 47.2254 60.2733 47.1215C60.42 47.0188 60.576 46.921 60.7413 46.8283C60.9131 46.7368 61.124 46.6352 61.3738 46.5235C61.5368 46.4439 61.7322 46.4107 61.96 46.4238C62.1945 46.4381 62.4113 46.5135 62.6106 46.6502C62.8111 46.7803 62.9407 46.986 62.9994 47.2671C63.0473 47.4177 63.0495 47.5975 63.0058 47.8064C62.9634 48.0088 62.8852 48.2218 62.7713 48.4454C62.6586 48.6624 62.5285 48.8629 62.381 49.0467C62.2335 49.2306 62.0798 49.3727 61.9199 49.4732C61.8207 49.5369 61.7035 49.5298 61.5683 49.4518C61.4397 49.3749 61.3369 49.2858 61.2601 49.1842C61.2207 49.0622 61.1994 48.9907 61.1963 48.9699C61.1998 48.9502 61.2152 48.9394 61.2427 48.9374C61.2902 48.8984 61.3566 48.8289 61.4419 48.7289C61.5272 48.6288 61.6137 48.5222 61.7014 48.409C61.7902 48.2893 61.8547 48.1924 61.8948 48.1182C61.996 47.8517 62.0639 47.6776 62.0987 47.5957C62.1346 47.5072 62.1282 47.4283 62.0795 47.3588C62.0579 47.3279 62.0202 47.3111 61.9665 47.3084C61.9194 47.3068 61.8348 47.3258 61.7128 47.3652C61.5502 47.4042 61.346 47.507 61.1 47.6734C60.8617 47.8345 60.6165 48.035 60.3644 48.2748C60.0404 48.5765 59.766 48.8463 59.5413 49.0842C59.3166 49.3221 59.1334 49.5742 58.9917 49.8403C58.9739 49.8642 58.9423 49.9094 58.8967 49.9758C58.8577 50.0434 58.8382 50.0772 58.8382 50.0772C58.8401 50.1046 58.8187 50.1685 58.7739 50.269C58.7303 50.3628 58.6857 50.443 58.6402 50.5094C58.5147 50.7987 58.4205 51.0833 58.3576 51.3633C58.2958 51.6367 58.2694 51.8825 58.2783 52.1007C58.295 52.3135 58.3438 52.4778 58.4249 52.5937C58.4999 52.6678 58.6047 52.7066 58.7395 52.7101C58.8743 52.7135 59.0334 52.6942 59.2168 52.6521C59.4003 52.61 59.598 52.5636 59.81 52.513C59.9792 52.4751 60.1363 52.4283 60.2815 52.3727C60.4267 52.3171 60.5374 52.2655 60.6134 52.218C60.6729 52.1879 60.7455 52.16 60.8312 52.1345C60.9247 52.1036 61.001 52.0934 61.06 52.1038C61.1577 52.0872 61.2221 52.1256 61.253 52.2191C61.2839 52.3125 61.2877 52.4249 61.2646 52.5562C61.2484 52.6481 61.1631 52.7482 61.0086 52.8563C60.8541 52.9645 60.69 53.0506 60.5162 53.1147C60.4545 53.158 60.3736 53.1945 60.2735 53.2243C60.1812 53.2486 60.0862 53.2691 59.9885 53.2857C59.8321 53.3664 59.6435 53.4381 59.4226 53.5007C59.2017 53.5633 58.9816 53.6023 58.7622 53.6178C58.5494 53.6344 58.3606 53.6113 58.1957 53.5484ZM62.5117 53.9946C62.3001 53.7745 62.1353 53.5762 62.0175 53.3998C61.9074 53.2179 61.8586 53.0536 61.8709 52.9068C61.8786 52.7863 61.907 52.6255 61.956 52.4243C62.0116 52.2242 62.0699 52.028 62.1308 51.8357C62.1918 51.6434 62.2409 51.4997 62.2779 51.4047C62.3165 51.3776 62.3372 51.3373 62.3399 51.2836C62.3503 51.2245 62.3555 51.195 62.3555 51.195C62.3547 51.161 62.3928 51.0797 62.4696 50.9511C62.5476 50.8159 62.6292 50.6407 62.7146 50.4256C62.9153 50.0549 63.098 49.7486 63.2624 49.5068C63.4346 49.2596 63.5966 49.0512 63.7484 48.8817C63.9001 48.7121 64.049 48.559 64.1949 48.4223C64.5127 48.194 64.8043 48.0186 65.0696 47.8961C65.3414 47.7748 65.5872 47.6862 65.807 47.6301C65.9522 47.5745 66.0846 47.5336 66.2043 47.5073C66.3241 47.481 66.4171 47.4906 66.4836 47.5362C66.8373 47.6798 67.1208 47.8957 67.334 48.1837C67.5473 48.4718 67.656 48.8531 67.6603 49.3278C67.6554 49.6248 67.6353 49.892 67.6002 50.1295C67.5728 50.3616 67.5159 50.5885 67.4294 50.8102C67.3441 51.0253 67.2153 51.2565 67.0431 51.5036C66.8775 51.752 66.6545 52.0376 66.3742 52.3605C66.0112 52.8448 65.6371 53.2392 65.2517 53.5436C64.874 53.8425 64.5081 54.0556 64.154 54.1827C63.8065 54.3109 63.4871 54.3562 63.1959 54.3183C62.9101 54.2883 62.6821 54.1804 62.5117 53.9946ZM63.4142 53.4836C63.5687 53.4905 63.6953 53.4824 63.7942 53.4592C63.8996 53.4372 64.0147 53.3796 64.1394 53.2865C64.2641 53.1934 64.4408 53.0553 64.6694 52.8722C64.8748 52.7054 65.0455 52.5629 65.1814 52.4447C65.3239 52.3276 65.4473 52.2038 65.5515 52.0733C65.6624 51.9439 65.7713 51.7871 65.8782 51.6029C65.9929 51.4132 66.1239 51.1689 66.2714 50.87C66.3587 50.6823 66.4203 50.5442 66.4562 50.4558C66.4998 50.362 66.5307 50.2828 66.5488 50.2183C66.567 50.1538 66.5826 50.0652 66.5957 49.9524C66.6165 49.8342 66.6478 49.6569 66.6895 49.4206C66.7026 49.3078 66.7016 49.179 66.6865 49.0342C66.6726 48.8828 66.6446 48.773 66.6025 48.7046C66.5496 48.6208 66.4621 48.5411 66.34 48.4654C66.218 48.3897 66.079 48.372 65.9229 48.4122C65.8384 48.4311 65.7277 48.4827 65.591 48.5669C65.4555 48.6445 65.3132 48.7413 65.1641 48.8572C65.0151 48.973 64.8726 49.0901 64.7367 49.2083C64.6008 49.3265 64.4901 49.4356 64.4048 49.5356C64.3195 49.6356 64.2727 49.7086 64.2646 49.7546C64.2646 49.7546 64.2585 49.7704 64.2461 49.8021C64.2403 49.8349 64.2214 49.8654 64.1893 49.8936C64.0878 49.9705 63.9725 50.1059 63.8436 50.2998C63.7146 50.4936 63.587 50.7182 63.4608 50.9735C63.3345 51.2288 63.2214 51.4864 63.1214 51.7463C63.0214 52.0063 62.9458 52.2434 62.8944 52.4577C62.8759 52.5628 62.8603 52.6514 62.8475 52.7236C62.8348 52.7958 62.8298 52.8627 62.8325 52.9241C62.8429 52.9801 62.8621 53.0444 62.8899 53.117C62.9177 53.1896 62.9849 53.2691 63.0915 53.3556C63.2047 53.4432 63.3122 53.4859 63.4142 53.4836ZM67.8176 55.2247C67.5484 55.1772 67.3103 55.0878 67.1033 54.9566C66.8951 54.8318 66.7914 54.6139 66.7921 54.3026C66.8276 54.1396 66.8521 54.039 66.8656 54.0008C66.8869 53.9571 66.9172 53.9388 66.9566 53.9457C66.9828 53.9504 67.0031 53.9505 67.0174 53.9463C67.0394 53.9366 67.0545 53.9088 67.0626 53.8629C67.0888 53.7524 67.1284 53.624 67.1813 53.4776C67.2419 53.3258 67.3035 53.1878 67.366 53.0634C67.4363 52.9336 67.4957 52.846 67.5444 52.8004C67.6069 52.676 67.6946 52.5053 67.8073 52.2883C67.9201 52.0712 68.0378 51.8449 68.1606 51.6093C68.2911 51.3683 68.4077 51.1485 68.5104 50.95C68.6196 50.7527 68.6982 50.6142 68.7461 50.5346C68.794 50.4551 68.8673 50.3462 68.9662 50.2079C69.0662 50.0631 69.1386 49.9404 69.1834 49.84C69.2525 49.7168 69.3266 49.5843 69.4057 49.4426C69.4861 49.2943 69.5567 49.1815 69.6177 49.1043L69.8372 48.8383L69.6113 48.565C69.5356 48.4568 69.5058 48.3568 69.522 48.2649C69.5405 48.1599 69.6185 48.0822 69.756 48.032C69.9001 47.9829 70.0597 47.9603 70.2351 47.9642C70.303 47.9626 70.3797 47.9693 70.4651 47.9844C70.557 48.0006 70.6423 48.0157 70.7211 48.0295C70.9115 48.0631 71.1007 48.1033 71.2888 48.15C71.4769 48.1967 71.6316 48.2409 71.7528 48.2825C71.8227 48.3084 71.9095 48.3542 72.013 48.4198C72.1165 48.4854 72.2155 48.5571 72.3102 48.6347C72.4048 48.7123 72.4705 48.7814 72.5072 48.842C72.5072 48.842 72.518 48.8575 72.5396 48.8884C72.5624 48.9127 72.5869 48.9272 72.6132 48.9318C72.6491 48.9584 72.7047 49.0461 72.78 49.1948C72.8619 49.3446 72.9377 49.5103 73.0072 49.6918C73.0779 49.8667 73.1115 50.0216 73.1081 50.1563C73.1104 50.2583 73.1044 50.3689 73.0901 50.4883C73.0836 50.6022 73.0722 50.7051 73.056 50.797C73.0217 50.9535 72.9852 51.1027 72.9466 51.2448C72.9145 51.3881 72.8704 51.5428 72.814 51.7089C72.7677 51.8564 72.702 52.0174 72.6171 52.192C72.5399 52.3612 72.4567 52.5259 72.3675 52.6862C72.286 52.8411 72.2131 52.967 72.1486 53.0639C72.0907 53.162 72.0551 53.2099 72.042 53.2076C72.0026 53.2006 71.9779 53.2064 71.9679 53.225C71.9578 53.2435 71.9505 53.2659 71.9459 53.2922C71.9277 53.3567 71.8665 53.4542 71.7623 53.5847C71.6592 53.7087 71.5341 53.8424 71.387 53.9857C71.241 54.1224 71.0902 54.2481 70.9346 54.3628C70.7855 54.4787 70.6527 54.5602 70.5361 54.6073C70.2855 54.8001 69.9985 54.9492 69.6753 55.0547C69.3509 55.1667 69.0242 55.2343 68.6952 55.2576C68.3727 55.2819 68.0802 55.271 67.8176 55.2247ZM68.2392 54.2734C68.3048 54.285 68.4104 54.3002 68.556 54.3191C68.7094 54.3326 68.8349 54.3311 68.9326 54.3144C69.0971 54.3028 69.3025 54.2511 69.5489 54.1591C69.7964 54.0606 70.0283 53.9356 70.2446 53.7842C70.4851 53.61 70.7072 53.4258 70.9107 53.2315C71.1153 53.0306 71.3317 52.7439 71.5599 52.3712C71.7179 52.1282 71.8435 51.8762 71.9369 51.6151C72.0369 51.3552 72.106 51.1169 72.1442 50.9003C72.2125 50.5129 72.1953 50.1883 72.0925 49.9265C71.9909 49.6581 71.8328 49.461 71.618 49.3351C71.5319 49.2861 71.4407 49.2463 71.3446 49.2158C71.2496 49.1788 71.1561 49.1521 71.0642 49.1359C70.9985 49.1244 70.929 49.1155 70.8556 49.1093C70.7888 49.1043 70.7444 49.1066 70.7224 49.1163C70.6699 49.107 70.6015 49.1491 70.5174 49.2426C70.4398 49.3372 70.3608 49.4587 70.2805 49.607C70.2002 49.7553 70.1237 49.9009 70.0512 50.0438C69.9651 50.2249 69.8886 50.3705 69.8218 50.4806C69.7562 50.5841 69.69 50.6909 69.6232 50.801C69.5564 50.9111 69.471 51.0686 69.3672 51.2737C69.244 51.4348 69.1334 51.6014 69.0353 51.7737C68.945 51.9405 68.868 52.0894 68.8043 52.2204C68.7417 52.3447 68.696 52.4314 68.667 52.4805C68.6137 52.5523 68.5502 52.663 68.4765 52.8124C68.4104 52.9565 68.3421 53.1137 68.2715 53.284C68.2074 53.4555 68.1489 53.6144 68.096 53.7608C68.0497 53.9083 68.0196 54.0215 68.0057 54.1002C67.9964 54.1528 68.0163 54.1935 68.0654 54.2225C68.1156 54.2449 68.1735 54.2618 68.2392 54.2734ZM74.3946 56.2422C74.132 56.1959 73.8986 56.1378 73.6942 56.0679C73.4954 56.0058 73.3221 55.894 73.1746 55.7326C72.9977 55.5457 72.8914 55.3036 72.8559 55.0062C72.828 54.7035 72.9176 54.33 73.1245 53.8859C73.1863 53.7275 73.2479 53.5894 73.3092 53.4716C73.3772 53.355 73.4276 53.2996 73.4604 53.3054C73.4728 53.2737 73.4907 53.2295 73.5143 53.1727C73.539 53.1094 73.5654 53.0362 73.5936 52.9531C73.6473 52.8408 73.6853 52.7595 73.7077 52.7093C73.7312 52.6525 73.7662 52.6079 73.8125 52.5754C73.8345 52.5658 73.865 52.5271 73.904 52.4596C73.9442 52.3854 73.9687 52.3423 73.9776 52.3304C73.9776 52.3304 73.9849 52.308 73.9996 52.2632C74.0154 52.2118 74.0422 52.1556 74.0801 52.0946C74.2075 51.9478 74.2758 51.8482 74.2851 51.7956C74.3029 51.7717 74.3361 51.7369 74.3847 51.6914C74.4399 51.6469 74.4882 51.5844 74.5295 51.5036C74.7878 51.1904 74.999 50.9332 75.1631 50.732C75.3284 50.5242 75.4352 50.3602 75.4834 50.2401C75.529 50.1737 75.5736 50.0935 75.6172 49.9997C75.6686 49.9004 75.7218 49.8286 75.7771 49.7842C75.7697 49.749 75.8122 49.7193 75.9045 49.6949C76.0033 49.6717 76.1291 49.6499 76.2816 49.6294C76.4341 49.6089 76.5954 49.5967 76.7653 49.5929C76.9352 49.589 77.0897 49.5959 77.2287 49.6136C77.2727 49.5943 77.3616 49.5897 77.4952 49.5997C77.6354 49.6109 77.7941 49.6321 77.9714 49.6634C78.1486 49.6946 78.3116 49.7301 78.4603 49.7699C78.6047 49.7953 78.7162 49.8353 78.7946 49.8897C78.873 49.9442 78.9514 49.9986 79.0298 50.0531C79.0568 50.0917 79.0947 50.1457 79.1433 50.2153C79.192 50.2848 79.2171 50.3535 79.2187 50.4215C79.2268 50.4906 79.1737 50.5422 79.0594 50.5762C79.0362 50.5924 78.925 50.5897 78.7257 50.5681C78.5264 50.5465 78.3185 50.5166 78.1018 50.4784C77.8589 50.4356 77.6453 50.4182 77.4611 50.4263C77.2769 50.4345 77.1487 50.4322 77.0765 50.4195C76.9799 50.4295 76.8687 50.4268 76.7428 50.4114C76.6169 50.396 76.554 50.3882 76.554 50.3882C76.5408 50.3859 76.5011 50.4195 76.4346 50.4891C76.3694 50.552 76.2947 50.6302 76.2105 50.7237C76.134 50.8118 76.062 50.8938 75.9945 50.9699C75.9334 51.0472 75.9012 51.0956 75.8977 51.1153C75.8862 51.181 75.8472 51.2486 75.7807 51.3181C75.7143 51.3876 75.6358 51.4685 75.545 51.5609C75.4643 51.6346 75.4054 51.719 75.3684 51.814C75.3325 51.9025 75.3417 51.965 75.3962 52.0017C75.5047 52.0005 75.6526 52.0063 75.8399 52.019C76.0338 52.0329 76.2238 52.0495 76.41 52.0688C76.5973 52.0815 76.7402 52.0965 76.8386 52.1139C76.956 52.1007 77.0491 52.1104 77.1179 52.1428C77.1866 52.1752 77.2356 52.2042 77.265 52.2297C77.3415 52.2567 77.3805 52.3042 77.382 52.3722C77.3902 52.4413 77.3786 52.507 77.3473 52.5691C77.316 52.6313 77.2757 52.6682 77.2263 52.6798C77.1799 52.7122 77.0733 52.7408 76.9065 52.7656C76.7397 52.7903 76.5433 52.8098 76.3174 52.8242C76.098 52.8396 75.876 52.8513 75.6512 52.859C75.4342 52.8614 75.2445 52.8618 75.0823 52.8603C74.9267 52.8599 74.8363 52.8541 74.8112 52.8429C74.7881 52.7441 74.7415 52.7392 74.6716 52.8285C74.6095 52.9123 74.5201 53.0928 74.4035 53.3701C74.3023 53.5215 74.2245 53.6364 74.1701 53.7148C74.1234 53.7878 74.0815 53.8718 74.0444 53.9668C74.0085 54.0553 73.9529 54.1978 73.8776 54.3944C73.8004 54.5635 73.7754 54.725 73.8024 54.8787C73.8372 55.027 73.9509 55.1689 74.1437 55.3044C74.2703 55.3538 74.4196 55.3903 74.5915 55.4138C74.7633 55.4373 74.9968 55.4379 75.2918 55.4154C75.4227 55.3641 75.5525 55.3193 75.6811 55.281C75.8108 55.2362 75.901 55.2047 75.9516 55.1865C75.9844 55.1923 76.036 55.1879 76.1063 55.1732C76.1843 55.1531 76.2364 55.1454 76.2627 55.15C76.3279 55.087 76.3999 55.0625 76.4787 55.0764C76.4919 55.0787 76.5228 55.1146 76.5714 55.1841C76.6267 55.2548 76.6757 55.3413 76.7186 55.4436C76.7615 55.546 76.7742 55.6464 76.7569 55.7449C76.7453 55.8105 76.6186 55.8762 76.3769 55.9419C76.1417 56.0087 75.8484 56.0788 75.497 56.1523C75.3201 56.1955 75.1757 56.2276 75.0637 56.2485C74.9583 56.2705 74.8584 56.28 74.7642 56.2769C74.6688 56.2804 74.5456 56.2688 74.3946 56.2422Z" fill="#F85F4C"/>
</g>
<defs>
<clipPath id="clip0_1_141">
<rect width="32" height="32" fill="white" transform="translate(54.5175 36.6267) rotate(10)"/>
</clipPath>
</defs>
</svg>
