<svg width="160" height="90" viewBox="0 0 160 90" fill="none" xmlns="http://www.w3.org/2000/svg">
<g clip-path="url(#clip0_1_65)" filter="url(#filter0_d_1_65)">
<path d="M94.8108 23.8297C93.8186 24.932 92.4388 25.6806 90.9692 26.2534C89.381 26.8725 87.9238 27.4303 86.2908 27.7766C84.5832 28.1388 82.8499 28.377 81.1102 28.4879C80.3113 28.5388 79.5694 28.5543 78.8909 28.3661C78.169 28.1658 77.7485 27.7844 77.5087 27.3166C77.2595 26.8307 77.1815 26.2031 77.2505 25.4923C77.3892 24.0634 78.1047 22.4807 78.7971 21.5379C80.141 19.7078 82.1981 18.4083 84.4285 17.6661C86.3155 17.0381 88.3358 16.7983 90.2372 17.1634C92.1394 17.5286 93.9049 18.5313 94.9813 20.0334C95.4776 20.726 95.7808 21.494 95.6769 22.2142C95.5955 22.7789 95.2636 23.3265 94.8108 23.8297Z" fill="#F85F4C" stroke="black"/>
<path d="M88.1326 28.7705L88.5518 29.0431L88.1326 28.7705C88.0415 28.9105 87.8532 29.0812 87.6229 29.1954C87.3879 29.312 87.1956 29.3286 87.0798 29.2926C86.9258 29.2447 86.7464 29.105 86.5914 28.8815C86.4378 28.6601 86.3503 28.4161 86.3347 28.2399C86.3194 28.0681 86.3519 27.8157 86.4454 27.5977C86.5406 27.3758 86.6586 27.2757 86.7576 27.2465C86.9241 27.1973 87.1834 27.2054 87.4644 27.2901C87.7461 27.3751 87.9631 27.511 88.065 27.6261C88.3273 27.9227 88.3661 28.4115 88.1326 28.7705Z" fill="white" stroke="black"/>
<path d="M93.721 22.8722L93.7209 22.8702L93.715 22.6788C93.7149 22.6788 93.7147 22.6788 93.7144 22.6788C93.7144 22.6788 93.7143 22.6788 93.7142 22.6788M93.721 22.8722L93.8198 22.8734C93.8164 23.1663 93.7707 23.1773 93.7305 23.1786M93.721 22.8722L93.7195 22.8722M93.721 22.8722L93.7195 22.8722M93.7142 22.6788C93.7058 22.679 93.6427 22.6803 93.5658 22.7117C93.5733 22.748 93.5799 22.7815 93.5861 22.8125C93.5901 22.8331 93.594 22.8525 93.5977 22.8708L93.7117 22.8721L93.7195 22.8722M93.7142 22.6788C93.7139 22.6788 93.7137 22.6788 93.7135 22.6788C93.7131 22.6789 93.7128 22.6789 93.7126 22.6789L93.7194 22.8705L93.7195 22.8722M93.7142 22.6788C93.7234 22.6784 93.7608 22.6772 93.8117 22.6878L93.7195 22.8722M93.7195 22.8722L93.7195 22.873L93.7196 22.8743M93.7196 22.8743L93.7124 22.8743L93.7006 22.8744L93.5986 22.8754C93.5999 22.882 93.6013 22.8885 93.6026 22.8949C93.6536 23.1674 93.6857 23.1802 93.7305 23.1786M93.7196 22.8743L93.7211 22.8743L93.7305 23.1786M93.7196 22.8743L93.7305 23.1786" fill="white" stroke="black"/>
<path d="M93.6447 24.0016C93.6843 23.9887 93.7367 24.0239 93.771 24.0874L93.7689 24.0914L93.7688 24.0915L93.725 24.1748M93.6447 24.0016C93.5782 24.0325 93.5329 24.1526 93.51 24.2139L93.5279 24.2187L93.5344 24.2205L93.6803 24.2599M93.6447 24.0016L93.6881 24.1341L93.6886 24.1357L93.7105 24.2025M93.6447 24.0016L93.7026 24.1264L93.7032 24.1277L93.725 24.1748M93.6803 24.2599L93.6777 24.2648M93.6803 24.2599L93.683 24.2606M93.6803 24.2599L93.7105 24.2025M93.6777 24.2648L93.519 24.229L93.5116 24.2273L93.5054 24.2259C93.5048 24.2277 93.5041 24.2294 93.5035 24.231M93.6777 24.2648L93.6804 24.2654M93.6777 24.2648L93.6723 24.2752M93.5035 24.231C93.5034 24.2312 93.5034 24.2315 93.5033 24.2317C93.5027 24.234 93.5022 24.2363 93.5016 24.2385C93.4788 24.3361 93.5256 24.3687 93.602 24.4088M93.5035 24.231L93.5042 24.2312L93.5115 24.2331L93.6723 24.2752M93.5035 24.231L93.5041 24.2313L93.5104 24.2337L93.6631 24.2926M93.602 24.4088C93.6573 24.4391 93.7205 24.4699 93.7702 24.3848L93.7511 24.3266L93.6651 24.2934M93.602 24.4088L93.6631 24.2926M93.602 24.4088L93.6651 24.2934M93.6651 24.2934L93.6747 24.2758M93.6651 24.2934L93.6631 24.2926M93.6747 24.2758L93.7401 24.2929L93.7351 24.2778L93.6804 24.2654M93.6747 24.2758L93.6723 24.2752M93.6747 24.2758L93.6804 24.2654M93.6804 24.2654L93.683 24.2606M93.683 24.2606L93.734 24.2744L93.7121 24.2075M93.683 24.2606L93.7121 24.2075M93.7121 24.2075L93.7273 24.1797M93.7121 24.2075L93.7105 24.2025M93.7273 24.1797L93.7765 24.2859L93.8056 24.2937M93.7273 24.1797L93.7744 24.0936C93.8077 24.157 93.8172 24.2424 93.8056 24.2937M93.7273 24.1797L93.725 24.1748M93.8056 24.2937L93.7772 24.2873L93.7852 24.3047L93.8013 24.3089C93.8027 24.304 93.8042 24.299 93.8056 24.2937ZM93.725 24.1748L93.7105 24.2025M93.6723 24.2752L93.6631 24.2926" fill="white" stroke="black"/>
<path d="M79.1669 24.1232L79.1668 24.1231L79.1662 24.1238L79.1584 24.1315L78.9155 24.3738C78.9007 24.3589 78.9687 24.4388 79.0948 24.4741C79.1343 24.4032 79.1701 24.3467 79.1997 24.3C79.2152 24.2755 79.229 24.2537 79.2407 24.2339L79.1669 24.1232ZM79.1669 24.1232L79.1663 24.1238L79.1585 24.1316L78.9158 24.374C78.9157 24.3739 78.9097 24.3679 78.9016 24.3586C78.8932 24.3489 78.8807 24.3332 78.8673 24.3122C78.8644 24.3077 78.8616 24.303 78.8588 24.2981L79.1669 24.1232ZM79.1728 24.1172L79.2696 24.0207L79.1728 24.1173L79.1728 24.1172ZM78.5978 25.7842C78.6598 25.7553 78.7202 25.7427 78.7742 25.7395L78.8091 26.2374C78.7793 26.2536 78.6586 26.0884 78.5866 25.8287C78.5835 25.8174 78.5804 25.806 78.5775 25.7943C78.585 25.7904 78.5927 25.7866 78.6007 25.7829L78.5978 25.7842Z" fill="white" stroke="black"/>
<mask id="path-6-inside-1_1_65" fill="white">
<path d="M96.576 22.2148L96.5753 22.2124C96.4529 21.6888 96.1931 21.1889 95.8658 20.7346C95.404 20.1108 94.813 19.5398 94.1149 19.0786C93.7123 18.8067 93.2757 18.5708 92.8135 18.3713C92.8127 18.371 92.8119 18.3707 92.8111 18.3704C92.7992 18.2835 92.7805 18.1777 92.7504 18.0398C92.6818 17.7328 92.5656 17.2824 92.3513 16.6251C92.1291 15.9714 91.825 15.0984 91.2257 14.0197C91.0537 13.7261 90.8638 13.3985 90.5971 13.0516C90.3741 12.7661 90.0768 12.4587 89.6711 12.2654C89.6496 12.2176 89.6218 12.165 89.5768 12.1014C89.4542 11.9298 89.1936 11.6752 88.7089 11.5547C88.2294 11.4351 87.5711 11.4725 86.8166 11.7539C86.4022 11.9068 85.8969 12.1661 85.4301 12.5452C85.1979 12.7337 84.9715 12.9569 84.7952 13.2212C84.6264 13.4756 84.4962 13.7473 84.4077 14.015C84.2293 14.5524 84.2277 15.0653 84.2962 15.4138C84.3139 15.5092 84.3354 15.5916 84.3581 15.6625C83.8799 15.7342 83.3603 15.9017 82.8731 16.1729C82.5086 16.3722 82.1576 16.6284 81.8672 16.9409C81.5924 17.2306 81.3758 17.5587 81.2088 17.8859C81.2084 17.8867 81.2082 17.8873 81.2078 17.8881C81.141 17.8073 81.0466 17.7021 80.9194 17.5751C80.6301 17.2894 80.1776 16.8902 79.5043 16.5516C78.8385 16.2162 77.9172 15.9586 76.8821 16.087C76.3694 16.1499 75.8281 16.3115 75.3407 16.6116C74.8485 16.9027 74.4262 17.3305 74.0957 17.816C73.4405 18.8009 73.1508 19.994 73.0351 21.1596C72.9047 22.3286 72.903 23.5137 72.9917 24.6525C73.1698 26.9339 73.6872 29.0174 74.1149 30.6132C74.9285 33.5181 75.5756 35.695 76.189 37.318C76.8021 38.9371 77.3652 39.9785 77.7834 40.6543C78.1746 41.2853 78.4362 41.6026 78.5924 41.77C78.7001 42.049 78.8071 42.3257 78.9141 42.6024C79.1706 43.2746 79.4444 43.9681 79.8473 44.6089C80.2476 45.2504 80.8029 45.8421 81.5221 46.2025C82.2408 46.5708 83.0682 46.6893 83.8574 46.6554C84.6531 46.6248 85.4251 46.4535 86.1657 46.2306C86.5411 46.1177 86.8967 45.9841 87.25 45.8617C87.6052 45.7361 87.961 45.6131 88.3136 45.4882C91.1338 44.4977 93.8799 43.568 96.4683 42.8232C97.7478 42.4483 99.054 42.1661 100.205 41.5566C100.776 41.2558 101.313 40.8647 101.692 40.3556C102.084 39.8559 102.279 39.2492 102.327 38.6925C102.377 38.1777 102.325 37.6867 102.243 37.2198C102.165 36.7522 102.055 36.312 101.955 35.8768C101.755 35.004 101.542 34.1639 101.326 33.3536C100.886 31.7326 100.414 30.2316 99.9025 28.8527C98.9073 26.1946 97.7686 23.9941 96.576 22.2148V22.2148ZM87.7206 17.6473C87.6275 17.4289 87.488 17.1553 87.2584 16.8285C87.1659 16.6995 87.0553 16.5653 86.9169 16.431L86.9165 16.4296C86.902 16.269 86.8713 16.0286 86.8387 15.724C86.8113 15.4435 86.7888 15.1095 86.8189 14.7473C86.8534 14.3898 86.9414 13.9891 87.1482 13.6465C87.2209 13.5273 87.3113 13.4149 87.4087 13.307C87.4848 13.5162 87.6557 13.8696 87.8363 14.2803C88.1162 14.9019 88.3972 15.6536 88.5629 16.1353C88.8247 16.894 88.9462 17.3407 89.0453 17.5941L89.0453 17.5941C88.6021 17.5868 88.1608 17.6053 87.7206 17.6473V17.6473ZM90.683 14.3106C91.2542 15.3382 91.5674 16.181 91.8142 16.812C92.0538 17.4472 92.2123 17.8811 92.3337 18.1699C92.3357 18.1747 92.3372 18.1778 92.3391 18.1824C91.4535 17.8597 90.4941 17.666 89.519 17.6111L89.5183 17.6087C89.5182 17.6086 89.5181 17.6087 89.518 17.6087C89.5155 17.3527 89.4632 16.8523 89.1463 15.9339C88.9733 15.4301 88.6124 14.6687 88.2232 14.0802C87.9524 13.663 87.6808 13.3343 87.5183 13.1897C87.68 13.0334 87.8641 12.8965 88.0654 12.7944C88.4456 12.5991 88.8777 12.5448 89.234 12.6815C89.5951 12.81 89.8813 13.0963 90.108 13.4011C90.3346 13.7072 90.5221 14.0352 90.683 14.3106V14.3106ZM84.8155 14.1491C84.9177 13.9222 85.0517 13.697 85.2129 13.4903C85.3671 13.2932 85.5668 13.1174 85.7792 12.9632C86.204 12.6538 86.6642 12.4346 87.0258 12.3019C87.6895 12.0548 88.2184 12.0226 88.5707 12.0842C88.5922 12.088 88.6113 12.0928 88.6317 12.0972C88.6222 12.0985 88.6125 12.0983 88.6032 12.0998C88.3241 12.1395 88.0604 12.2378 87.8259 12.3698C87.3566 12.6361 86.9945 13.0279 86.766 13.4579C86.5378 13.9002 86.4811 14.3474 86.4754 14.7426C86.4768 15.1388 86.5374 15.4835 86.6022 15.7657C86.651 15.9686 86.6994 16.1397 86.7433 16.2768C86.7428 16.2765 86.7425 16.276 86.742 16.2757C86.7413 16.2732 86.7413 16.2732 86.7406 16.2708C86.6616 16.1985 86.5698 16.13 86.4704 16.0637C86.291 15.9411 86.076 15.8395 85.8322 15.7539C85.5869 15.6819 85.3176 15.6326 85.031 15.62C84.8742 15.6149 84.7092 15.62 84.5342 15.6386C84.5341 15.6386 84.5339 15.6386 84.5338 15.6387C84.5324 15.5661 84.5317 15.4836 84.5349 15.39C84.5418 15.0601 84.6098 14.604 84.8155 14.1491V14.1491ZM81.5655 18.1236C81.7445 17.8193 81.9683 17.5259 82.2336 17.2706C82.4963 17.0161 82.8109 16.8073 83.1363 16.6455C83.7881 16.3163 84.4818 16.1912 84.9916 16.2084C85.9402 16.2368 86.4643 16.7584 86.7974 17.1557C86.9585 17.3598 87.0838 17.5452 87.1854 17.7058C86.0454 17.8614 84.9292 18.1578 83.8785 18.5566C82.765 18.9786 81.7155 19.5273 80.7972 20.1753C80.8267 20.0747 80.8621 19.9564 80.8985 19.8221C81.0317 19.3676 81.2106 18.7339 81.5655 18.1236V18.1236ZM77.2299 28.9217C77.1571 29.8095 77.1 30.7324 77.0731 31.6834C76.9978 31.3313 76.873 30.8312 76.7095 30.1037C76.5362 29.3346 76.3195 28.313 76.1219 26.9447C76.0126 26.1953 75.8923 25.2275 75.8154 24.1925C75.7365 23.1579 75.7011 22.057 75.7077 21.0491C75.7079 20.0379 75.7373 19.1313 75.9521 18.5149C76.1057 18.0346 76.3401 17.7568 76.4227 17.6378C76.5981 17.6224 76.7862 17.6144 76.9914 17.6212C77.3509 17.6339 77.8073 17.6968 78.2734 17.8624C78.7398 18.0202 79.2019 18.2723 79.5784 18.5631C80.157 18.9966 80.5018 19.5138 80.6722 19.7278C80.6722 19.7282 80.6721 19.7286 80.6721 19.729C80.6692 19.7482 80.6683 19.7643 80.6655 19.7836C80.6379 19.997 80.6251 20.1746 80.6208 20.3049L80.6182 20.3057C80.2444 20.5789 79.8929 20.872 79.5701 21.178C78.9888 21.7241 78.4883 22.3104 78.0994 22.9278C77.7117 23.5396 77.4196 24.1557 77.1978 24.7463C76.808 25.8252 76.5917 26.9281 76.8201 27.9667C76.8934 28.3093 77.034 28.6353 77.2299 28.9217ZM75.5476 16.924C75.973 16.6454 76.453 16.4857 76.9221 16.4127C77.8697 16.2646 78.7418 16.468 79.3943 16.758C80.0538 17.0499 80.5213 17.4094 80.8331 17.6624C80.9811 17.7839 81.094 17.882 81.1748 17.951C81.1748 17.951 81.1748 17.951 81.1748 17.951C80.9127 18.4979 80.7851 19.0299 80.7139 19.4588C80.7138 19.4591 80.7138 19.4594 80.7137 19.4597C80.695 19.4116 80.6742 19.361 80.6487 19.3058C80.5088 19.005 80.2522 18.6103 79.8745 18.2506C79.5004 17.8887 79.0096 17.5657 78.495 17.3574C77.9854 17.1416 77.4463 17.0462 77.032 17.0328C76.2692 17.0086 75.7055 17.1614 75.303 17.2949C75.1528 17.3479 75.0296 17.3995 74.9182 17.4497C75.1089 17.2475 75.3181 17.0681 75.5476 16.924V16.924ZM76.724 37.1252C76.1519 35.526 75.5192 33.3391 74.7105 30.4512C74.2857 28.8674 73.7606 26.8181 73.5565 24.5938C73.4547 23.4832 73.4377 22.3309 73.5427 21.1937C73.6292 20.0953 73.8765 19.0049 74.4164 18.1103C74.4761 18.1042 74.5551 18.0872 74.6679 18.0523C74.8413 18.0005 75.091 17.9123 75.4627 17.811C75.6938 17.7527 75.9749 17.6853 76.3125 17.6476C76.2778 17.6744 76.2397 17.7061 76.1957 17.7489C76.0515 17.8858 75.8723 18.1188 75.7283 18.4395C75.4249 19.0825 75.3288 20.0368 75.273 21.0472C75.2104 22.0667 75.2009 23.1854 75.2497 24.2385C75.2964 25.2919 75.4015 26.2788 75.5126 27.0408C75.7136 28.4321 75.9511 29.4678 76.1576 30.2411C76.3637 31.0147 76.5397 31.5269 76.6679 31.8694C76.8887 32.4236 76.9839 32.5286 77.0555 32.5344C77.0407 33.7974 77.0932 35.1016 77.2415 36.431C77.3224 37.1193 77.4298 37.8131 77.5714 38.5104C77.6844 39.0588 77.8353 39.6042 78.0084 40.1407C77.664 39.4627 77.2189 38.5071 76.724 37.1252V37.1252ZM77.0731 31.6837L77.0745 31.6883C77.0744 31.6888 77.0744 31.6893 77.0744 31.6897C77.074 31.6877 77.0736 31.6857 77.0731 31.6837ZM96.3079 42.2736C93.7031 43.0284 90.9476 43.9741 88.129 44.9799C87.7771 45.1072 87.4245 45.232 87.0701 45.36C86.7124 45.4862 86.3619 45.6184 86.0095 45.7247C85.6425 45.8378 85.2713 45.9364 84.8949 46.0074C84.8949 46.0074 84.8949 46.0074 84.8949 46.0074C84.4966 45.9589 84.0379 45.8302 83.5769 45.5689C82.8224 45.1592 82.1806 44.3341 81.7778 43.2962C81.5658 42.7775 81.4189 42.2117 81.2399 41.611C81.0623 41.0173 80.8701 40.4105 80.7507 39.7804C80.6843 39.466 80.6538 39.1459 80.6356 38.8246C80.6381 38.505 80.647 38.1803 80.733 37.8713C80.8781 37.2418 81.2796 36.7064 81.8225 36.2859C82.3653 35.8634 83.008 35.5472 83.6641 35.2534C84.324 34.9638 84.9856 34.6898 85.652 34.4522C88.3123 33.4845 90.9334 32.9182 92.9721 32.5374C93.9039 32.3661 94.7826 32.2246 95.6091 32.102C95.8138 32.0734 96.0238 32.0393 96.2148 32.0164C96.3968 31.9954 96.5737 31.9864 96.7337 32.0064C96.8969 32.0203 97.0361 32.0703 97.1622 32.1338C97.2808 32.2095 97.3937 32.2926 97.4805 32.4146C97.6653 32.6433 97.7868 32.9457 97.9038 33.2387C98.0183 33.5343 98.1282 33.8364 98.2477 34.1197C98.4792 34.6672 98.6553 35.1816 98.7865 35.6698C98.9181 36.158 99.0143 36.6195 99.1071 37.0456C99.2006 37.474 99.2849 37.8545 99.3415 38.2055C99.46 38.9055 99.4772 39.4736 99.4353 39.9263C99.3503 40.7781 99.1275 41.206 99.0209 41.4482C99.0206 41.4483 99.0204 41.4484 99.0202 41.4485C98.185 41.767 97.2568 41.9937 96.3079 42.2736V42.2736ZM100.731 33.5137C100.948 34.3184 101.157 35.1519 101.355 36.0173C101.551 36.886 101.795 37.7728 101.715 38.6548C101.671 39.1335 101.517 39.61 101.196 40.0183C100.89 40.4327 100.436 40.7738 99.92 41.0455C99.7638 41.1298 99.6005 41.2083 99.4324 41.2802C99.4321 41.2804 99.4317 41.2805 99.4314 41.2806C99.5893 41.0101 99.7669 40.5969 99.8673 39.9628C99.942 39.4728 99.9478 38.8574 99.8463 38.1235C99.7986 37.7563 99.721 37.358 99.6378 36.9326C99.5543 36.5047 99.4656 36.0349 99.3362 35.524C99.2074 35.0132 99.0278 34.4672 98.7946 33.9004C98.6822 33.6263 98.5806 33.339 98.4631 33.028C98.3405 32.7204 98.218 32.3838 97.9652 32.0596C97.8473 31.8951 97.6725 31.7494 97.4792 31.6319C97.2776 31.5241 97.0509 31.4505 96.8244 31.4288C96.5975 31.4006 96.3736 31.4124 96.153 31.4372C95.9412 31.4622 95.7435 31.4941 95.5329 31.5232C94.6995 31.6448 93.8129 31.7863 92.8715 31.9593C90.812 32.3443 88.1605 32.9331 85.4604 33.9469C84.7848 34.1957 84.1112 34.4835 83.4429 34.787C82.7782 35.0952 82.0996 35.4361 81.504 35.9131C80.9106 36.3781 80.4169 37.0552 80.2707 37.7809C80.1791 38.141 80.1756 38.5019 80.1807 38.8527C80.2066 39.2012 80.2477 39.5436 80.3238 39.8704C80.4633 40.5281 80.6737 41.1406 80.8649 41.7274C81.0538 42.3077 81.2232 42.8958 81.4579 43.4254C81.6877 43.9576 81.9713 44.4435 82.3118 44.8451C82.6473 45.2489 83.0489 45.5623 83.4547 45.769C83.7619 45.927 84.0655 46.0309 84.3517 46.0942C84.184 46.116 84.0167 46.1299 83.848 46.139C83.1252 46.1723 82.3987 46.067 81.7767 45.7553C81.156 45.4484 80.6599 44.9371 80.2859 44.3487C79.9079 43.7562 79.6388 43.0981 79.3764 42.425C79.1089 41.7534 78.8409 41.0897 78.6051 40.4221C78.3675 39.7578 78.1638 39.0862 78.0175 38.4114C77.873 37.7335 77.76 37.0491 77.6742 36.3728C77.3694 33.9068 77.4143 31.5092 77.5529 29.3034C77.5576 29.31 77.5655 29.3182 77.5727 29.3241C77.9571 29.6776 78.4242 29.8941 78.8808 30.0161C79.8037 30.2549 80.6766 30.1837 81.446 30.1291C82.2166 30.0689 82.9313 29.9878 83.5877 29.897C84.4389 29.7794 85.197 29.6464 85.8704 29.5087C85.8809 29.5452 85.8906 29.5793 85.903 29.6126C86.0231 29.9445 86.2131 30.2299 86.4561 30.458C86.6958 30.6844 87.0236 30.8407 87.3482 30.8505C87.9137 30.849 88.3013 30.614 88.6026 30.3879C88.9065 30.1611 89.1119 29.8519 89.1964 29.5853C89.3363 29.1446 89.2742 28.8119 89.1874 28.5865C90.2736 28.1855 90.8212 27.9283 91.1058 27.7887C91.3985 27.6389 91.4053 27.5948 91.3916 27.5566C91.3753 27.5191 91.3398 27.4923 91.0225 27.5755C90.7069 27.6554 90.1118 27.863 88.9725 28.2239C88.9699 28.2247 88.9699 28.2247 88.9673 28.2254C88.9079 28.1634 88.8544 28.1313 88.8166 28.1158C88.7483 28.0906 88.7134 28.1137 88.6824 28.1411C88.6488 28.1692 88.6243 28.1999 88.6283 28.262C88.6306 28.2798 88.6336 28.3 88.6413 28.3267C88.6562 28.3884 88.6832 28.4729 88.7162 28.5978C88.7255 28.6399 88.7337 28.6877 88.7413 28.7434C88.7676 28.9124 88.7701 29.1436 88.6626 29.4169C88.5866 29.5967 88.4653 29.7738 88.2337 29.943C88.0148 30.1085 87.6913 30.2672 87.3875 30.262C87.2358 30.2555 87.0499 30.1876 86.8743 30.0298C86.6982 29.88 86.5379 29.6598 86.4378 29.4171C86.435 29.4074 86.4304 29.4008 86.4276 29.3911C86.3812 29.2779 86.3529 29.1595 86.3445 29.0434C86.3422 28.9966 86.3399 28.9498 86.3427 28.9016C86.3453 28.8139 86.3588 28.7256 86.3756 28.6392C86.431 28.3677 86.5587 28.1071 86.7405 27.9574C86.9095 27.8115 87.1905 27.7757 87.4364 27.7816C87.6855 27.7893 87.9128 27.8374 88.0934 27.8962C88.4648 28.0111 88.6463 28.1699 88.6824 28.1411C88.7155 28.121 88.5781 27.8837 88.1965 27.6849C88.0073 27.5863 87.768 27.4968 87.4782 27.4534C87.3333 27.4318 87.1757 27.4242 87.0066 27.4437C86.8418 27.4593 86.6451 27.5183 86.485 27.6275C86.1585 27.8529 85.9797 28.1967 85.8808 28.5386C85.8383 28.6905 85.81 28.8435 85.8065 29.0053C85.1321 29.1301 84.3764 29.2519 83.525 29.3591C82.8774 29.4419 82.1742 29.5145 81.4157 29.5686C80.6591 29.6196 79.8445 29.6713 79.057 29.4597C78.669 29.3549 78.3014 29.1757 78.0046 28.9051C77.8505 28.7543 77.7209 28.5832 77.6173 28.3863L77.6166 28.3839C77.5291 28.214 77.4618 28.0278 77.4181 27.8269C77.3946 27.7255 77.3781 27.6196 77.3641 27.513C77.2726 26.7197 77.4502 25.8202 77.7777 24.9305C77.8581 24.7177 77.9482 24.4996 78.0491 24.2809C78.0484 24.2785 78.0484 24.2785 78.0503 24.2753C78.211 23.9262 78.4005 23.5714 78.6185 23.219C78.7768 22.9682 78.9551 22.7194 79.1568 22.4745C79.1561 22.472 79.1586 22.4713 79.1586 22.4713C79.4074 22.1681 79.6826 21.8704 79.9859 21.5832C81.0376 20.5781 82.4061 19.7298 83.9321 19.1209C83.9787 19.0997 84.0286 19.0801 84.0784 19.0605C84.5669 18.8678 85.074 18.7013 85.5887 18.5616L85.6118 18.555C86.2214 18.3881 86.8455 18.2618 87.4751 18.1841C87.4797 18.1906 87.4811 18.1955 87.4851 18.1996C87.6163 18.1831 87.7552 18.1644 87.8999 18.1466L87.8978 18.1392C88.0238 18.1242 88.1487 18.1147 88.2743 18.1077C88.2769 18.107 88.2769 18.107 88.2801 18.1087C88.5602 18.0889 88.8438 18.0814 89.1225 18.0859C90.8433 18.0984 92.532 18.5601 93.8619 19.4252C94.5296 19.8477 95.0977 20.3778 95.5444 20.9586C95.9828 21.539 96.2892 22.1917 96.3092 22.8421L96.3106 22.8469C96.3398 23.5 96.0362 24.0956 95.6683 24.5831C95.2953 25.0722 94.8585 25.4741 94.4408 25.8073C93.5906 26.4702 92.7919 26.8678 92.2478 27.1372C91.6996 27.4024 91.3853 27.5347 91.3916 27.5566C91.3943 27.5663 91.4771 27.5453 91.632 27.4955C91.7863 27.4434 92.0121 27.3602 92.2978 27.244C92.8653 27.0075 93.6891 26.6395 94.586 25.9845C95.0295 25.6544 95.4921 25.2556 95.9034 24.745C96.1048 24.4896 96.2946 24.2034 96.4326 23.8818C96.5093 23.7043 96.5697 23.5184 96.6054 23.3237C97.5761 24.9189 98.5051 26.8238 99.3318 29.0585C99.8363 30.4211 100.301 31.9058 100.731 33.5137V33.5137Z"/>
</mask>
<path d="M96.576 22.2148L96.5753 22.2124C96.4529 21.6888 96.1931 21.1889 95.8658 20.7346C95.404 20.1108 94.813 19.5398 94.1149 19.0786C93.7123 18.8067 93.2757 18.5708 92.8135 18.3713C92.8127 18.371 92.8119 18.3707 92.8111 18.3704C92.7992 18.2835 92.7805 18.1777 92.7504 18.0398C92.6818 17.7328 92.5656 17.2824 92.3513 16.6251C92.1291 15.9714 91.825 15.0984 91.2257 14.0197C91.0537 13.7261 90.8638 13.3985 90.5971 13.0516C90.3741 12.7661 90.0768 12.4587 89.6711 12.2654C89.6496 12.2176 89.6218 12.165 89.5768 12.1014C89.4542 11.9298 89.1936 11.6752 88.7089 11.5547C88.2294 11.4351 87.5711 11.4725 86.8166 11.7539C86.4022 11.9068 85.8969 12.1661 85.4301 12.5452C85.1979 12.7337 84.9715 12.9569 84.7952 13.2212C84.6264 13.4756 84.4962 13.7473 84.4077 14.015C84.2293 14.5524 84.2277 15.0653 84.2962 15.4138C84.3139 15.5092 84.3354 15.5916 84.3581 15.6625C83.8799 15.7342 83.3603 15.9017 82.8731 16.1729C82.5086 16.3722 82.1576 16.6284 81.8672 16.9409C81.5924 17.2306 81.3758 17.5587 81.2088 17.8859C81.2084 17.8867 81.2082 17.8873 81.2078 17.8881C81.141 17.8073 81.0466 17.7021 80.9194 17.5751C80.6301 17.2894 80.1776 16.8902 79.5043 16.5516C78.8385 16.2162 77.9172 15.9586 76.8821 16.087C76.3694 16.1499 75.8281 16.3115 75.3407 16.6116C74.8485 16.9027 74.4262 17.3305 74.0957 17.816C73.4405 18.8009 73.1508 19.994 73.0351 21.1596C72.9047 22.3286 72.903 23.5137 72.9917 24.6525C73.1698 26.9339 73.6872 29.0174 74.1149 30.6132C74.9285 33.5181 75.5756 35.695 76.189 37.318C76.8021 38.9371 77.3652 39.9785 77.7834 40.6543C78.1746 41.2853 78.4362 41.6026 78.5924 41.77C78.7001 42.049 78.8071 42.3257 78.9141 42.6024C79.1706 43.2746 79.4444 43.9681 79.8473 44.6089C80.2476 45.2504 80.8029 45.8421 81.5221 46.2025C82.2408 46.5708 83.0682 46.6893 83.8574 46.6554C84.6531 46.6248 85.4251 46.4535 86.1657 46.2306C86.5411 46.1177 86.8967 45.9841 87.25 45.8617C87.6052 45.7361 87.961 45.6131 88.3136 45.4882C91.1338 44.4977 93.8799 43.568 96.4683 42.8232C97.7478 42.4483 99.054 42.1661 100.205 41.5566C100.776 41.2558 101.313 40.8647 101.692 40.3556C102.084 39.8559 102.279 39.2492 102.327 38.6925C102.377 38.1777 102.325 37.6867 102.243 37.2198C102.165 36.7522 102.055 36.312 101.955 35.8768C101.755 35.004 101.542 34.1639 101.326 33.3536C100.886 31.7326 100.414 30.2316 99.9025 28.8527C98.9073 26.1946 97.7686 23.9941 96.576 22.2148V22.2148ZM87.7206 17.6473C87.6275 17.4289 87.488 17.1553 87.2584 16.8285C87.1659 16.6995 87.0553 16.5653 86.9169 16.431L86.9165 16.4296C86.902 16.269 86.8713 16.0286 86.8387 15.724C86.8113 15.4435 86.7888 15.1095 86.8189 14.7473C86.8534 14.3898 86.9414 13.9891 87.1482 13.6465C87.2209 13.5273 87.3113 13.4149 87.4087 13.307C87.4848 13.5162 87.6557 13.8696 87.8363 14.2803C88.1162 14.9019 88.3972 15.6536 88.5629 16.1353C88.8247 16.894 88.9462 17.3407 89.0453 17.5941L89.0453 17.5941C88.6021 17.5868 88.1608 17.6053 87.7206 17.6473V17.6473ZM90.683 14.3106C91.2542 15.3382 91.5674 16.181 91.8142 16.812C92.0538 17.4472 92.2123 17.8811 92.3337 18.1699C92.3357 18.1747 92.3372 18.1778 92.3391 18.1824C91.4535 17.8597 90.4941 17.666 89.519 17.6111L89.5183 17.6087C89.5182 17.6086 89.5181 17.6087 89.518 17.6087C89.5155 17.3527 89.4632 16.8523 89.1463 15.9339C88.9733 15.4301 88.6124 14.6687 88.2232 14.0802C87.9524 13.663 87.6808 13.3343 87.5183 13.1897C87.68 13.0334 87.8641 12.8965 88.0654 12.7944C88.4456 12.5991 88.8777 12.5448 89.234 12.6815C89.5951 12.81 89.8813 13.0963 90.108 13.4011C90.3346 13.7072 90.5221 14.0352 90.683 14.3106V14.3106ZM84.8155 14.1491C84.9177 13.9222 85.0517 13.697 85.2129 13.4903C85.3671 13.2932 85.5668 13.1174 85.7792 12.9632C86.204 12.6538 86.6642 12.4346 87.0258 12.3019C87.6895 12.0548 88.2184 12.0226 88.5707 12.0842C88.5922 12.088 88.6113 12.0928 88.6317 12.0972C88.6222 12.0985 88.6125 12.0983 88.6032 12.0998C88.3241 12.1395 88.0604 12.2378 87.8259 12.3698C87.3566 12.6361 86.9945 13.0279 86.766 13.4579C86.5378 13.9002 86.4811 14.3474 86.4754 14.7426C86.4768 15.1388 86.5374 15.4835 86.6022 15.7657C86.651 15.9686 86.6994 16.1397 86.7433 16.2768C86.7428 16.2765 86.7425 16.276 86.742 16.2757C86.7413 16.2732 86.7413 16.2732 86.7406 16.2708C86.6616 16.1985 86.5698 16.13 86.4704 16.0637C86.291 15.9411 86.076 15.8395 85.8322 15.7539C85.5869 15.6819 85.3176 15.6326 85.031 15.62C84.8742 15.6149 84.7092 15.62 84.5342 15.6386C84.5341 15.6386 84.5339 15.6386 84.5338 15.6387C84.5324 15.5661 84.5317 15.4836 84.5349 15.39C84.5418 15.0601 84.6098 14.604 84.8155 14.1491V14.1491ZM81.5655 18.1236C81.7445 17.8193 81.9683 17.5259 82.2336 17.2706C82.4963 17.0161 82.8109 16.8073 83.1363 16.6455C83.7881 16.3163 84.4818 16.1912 84.9916 16.2084C85.9402 16.2368 86.4643 16.7584 86.7974 17.1557C86.9585 17.3598 87.0838 17.5452 87.1854 17.7058C86.0454 17.8614 84.9292 18.1578 83.8785 18.5566C82.765 18.9786 81.7155 19.5273 80.7972 20.1753C80.8267 20.0747 80.8621 19.9564 80.8985 19.8221C81.0317 19.3676 81.2106 18.7339 81.5655 18.1236V18.1236ZM77.2299 28.9217C77.1571 29.8095 77.1 30.7324 77.0731 31.6834C76.9978 31.3313 76.873 30.8312 76.7095 30.1037C76.5362 29.3346 76.3195 28.313 76.1219 26.9447C76.0126 26.1953 75.8923 25.2275 75.8154 24.1925C75.7365 23.1579 75.7011 22.057 75.7077 21.0491C75.7079 20.0379 75.7373 19.1313 75.9521 18.5149C76.1057 18.0346 76.3401 17.7568 76.4227 17.6378C76.5981 17.6224 76.7862 17.6144 76.9914 17.6212C77.3509 17.6339 77.8073 17.6968 78.2734 17.8624C78.7398 18.0202 79.2019 18.2723 79.5784 18.5631C80.157 18.9966 80.5018 19.5138 80.6722 19.7278C80.6722 19.7282 80.6721 19.7286 80.6721 19.729C80.6692 19.7482 80.6683 19.7643 80.6655 19.7836C80.6379 19.997 80.6251 20.1746 80.6208 20.3049L80.6182 20.3057C80.2444 20.5789 79.8929 20.872 79.5701 21.178C78.9888 21.7241 78.4883 22.3104 78.0994 22.9278C77.7117 23.5396 77.4196 24.1557 77.1978 24.7463C76.808 25.8252 76.5917 26.9281 76.8201 27.9667C76.8934 28.3093 77.034 28.6353 77.2299 28.9217ZM75.5476 16.924C75.973 16.6454 76.453 16.4857 76.9221 16.4127C77.8697 16.2646 78.7418 16.468 79.3943 16.758C80.0538 17.0499 80.5213 17.4094 80.8331 17.6624C80.9811 17.7839 81.094 17.882 81.1748 17.951C81.1748 17.951 81.1748 17.951 81.1748 17.951C80.9127 18.4979 80.7851 19.0299 80.7139 19.4588C80.7138 19.4591 80.7138 19.4594 80.7137 19.4597C80.695 19.4116 80.6742 19.361 80.6487 19.3058C80.5088 19.005 80.2522 18.6103 79.8745 18.2506C79.5004 17.8887 79.0096 17.5657 78.495 17.3574C77.9854 17.1416 77.4463 17.0462 77.032 17.0328C76.2692 17.0086 75.7055 17.1614 75.303 17.2949C75.1528 17.3479 75.0296 17.3995 74.9182 17.4497C75.1089 17.2475 75.3181 17.0681 75.5476 16.924V16.924ZM76.724 37.1252C76.1519 35.526 75.5192 33.3391 74.7105 30.4512C74.2857 28.8674 73.7606 26.8181 73.5565 24.5938C73.4547 23.4832 73.4377 22.3309 73.5427 21.1937C73.6292 20.0953 73.8765 19.0049 74.4164 18.1103C74.4761 18.1042 74.5551 18.0872 74.6679 18.0523C74.8413 18.0005 75.091 17.9123 75.4627 17.811C75.6938 17.7527 75.9749 17.6853 76.3125 17.6476C76.2778 17.6744 76.2397 17.7061 76.1957 17.7489C76.0515 17.8858 75.8723 18.1188 75.7283 18.4395C75.4249 19.0825 75.3288 20.0368 75.273 21.0472C75.2104 22.0667 75.2009 23.1854 75.2497 24.2385C75.2964 25.2919 75.4015 26.2788 75.5126 27.0408C75.7136 28.4321 75.9511 29.4678 76.1576 30.2411C76.3637 31.0147 76.5397 31.5269 76.6679 31.8694C76.8887 32.4236 76.9839 32.5286 77.0555 32.5344C77.0407 33.7974 77.0932 35.1016 77.2415 36.431C77.3224 37.1193 77.4298 37.8131 77.5714 38.5104C77.6844 39.0588 77.8353 39.6042 78.0084 40.1407C77.664 39.4627 77.2189 38.5071 76.724 37.1252V37.1252ZM77.0731 31.6837L77.0745 31.6883C77.0744 31.6888 77.0744 31.6893 77.0744 31.6897C77.074 31.6877 77.0736 31.6857 77.0731 31.6837ZM96.3079 42.2736C93.7031 43.0284 90.9476 43.9741 88.129 44.9799C87.7771 45.1072 87.4245 45.232 87.0701 45.36C86.7124 45.4862 86.3619 45.6184 86.0095 45.7247C85.6425 45.8378 85.2713 45.9364 84.8949 46.0074C84.8949 46.0074 84.8949 46.0074 84.8949 46.0074C84.4966 45.9589 84.0379 45.8302 83.5769 45.5689C82.8224 45.1592 82.1806 44.3341 81.7778 43.2962C81.5658 42.7775 81.4189 42.2117 81.2399 41.611C81.0623 41.0173 80.8701 40.4105 80.7507 39.7804C80.6843 39.466 80.6538 39.1459 80.6356 38.8246C80.6381 38.505 80.647 38.1803 80.733 37.8713C80.8781 37.2418 81.2796 36.7064 81.8225 36.2859C82.3653 35.8634 83.008 35.5472 83.6641 35.2534C84.324 34.9638 84.9856 34.6898 85.652 34.4522C88.3123 33.4845 90.9334 32.9182 92.9721 32.5374C93.9039 32.3661 94.7826 32.2246 95.6091 32.102C95.8138 32.0734 96.0238 32.0393 96.2148 32.0164C96.3968 31.9954 96.5737 31.9864 96.7337 32.0064C96.8969 32.0203 97.0361 32.0703 97.1622 32.1338C97.2808 32.2095 97.3937 32.2926 97.4805 32.4146C97.6653 32.6433 97.7868 32.9457 97.9038 33.2387C98.0183 33.5343 98.1282 33.8364 98.2477 34.1197C98.4792 34.6672 98.6553 35.1816 98.7865 35.6698C98.9181 36.158 99.0143 36.6195 99.1071 37.0456C99.2006 37.474 99.2849 37.8545 99.3415 38.2055C99.46 38.9055 99.4772 39.4736 99.4353 39.9263C99.3503 40.7781 99.1275 41.206 99.0209 41.4482C99.0206 41.4483 99.0204 41.4484 99.0202 41.4485C98.185 41.767 97.2568 41.9937 96.3079 42.2736V42.2736ZM100.731 33.5137C100.948 34.3184 101.157 35.1519 101.355 36.0173C101.551 36.886 101.795 37.7728 101.715 38.6548C101.671 39.1335 101.517 39.61 101.196 40.0183C100.89 40.4327 100.436 40.7738 99.92 41.0455C99.7638 41.1298 99.6005 41.2083 99.4324 41.2802C99.4321 41.2804 99.4317 41.2805 99.4314 41.2806C99.5893 41.0101 99.7669 40.5969 99.8673 39.9628C99.942 39.4728 99.9478 38.8574 99.8463 38.1235C99.7986 37.7563 99.721 37.358 99.6378 36.9326C99.5543 36.5047 99.4656 36.0349 99.3362 35.524C99.2074 35.0132 99.0278 34.4672 98.7946 33.9004C98.6822 33.6263 98.5806 33.339 98.4631 33.028C98.3405 32.7204 98.218 32.3838 97.9652 32.0596C97.8473 31.8951 97.6725 31.7494 97.4792 31.6319C97.2776 31.5241 97.0509 31.4505 96.8244 31.4288C96.5975 31.4006 96.3736 31.4124 96.153 31.4372C95.9412 31.4622 95.7435 31.4941 95.5329 31.5232C94.6995 31.6448 93.8129 31.7863 92.8715 31.9593C90.812 32.3443 88.1605 32.9331 85.4604 33.9469C84.7848 34.1957 84.1112 34.4835 83.4429 34.787C82.7782 35.0952 82.0996 35.4361 81.504 35.9131C80.9106 36.3781 80.4169 37.0552 80.2707 37.7809C80.1791 38.141 80.1756 38.5019 80.1807 38.8527C80.2066 39.2012 80.2477 39.5436 80.3238 39.8704C80.4633 40.5281 80.6737 41.1406 80.8649 41.7274C81.0538 42.3077 81.2232 42.8958 81.4579 43.4254C81.6877 43.9576 81.9713 44.4435 82.3118 44.8451C82.6473 45.2489 83.0489 45.5623 83.4547 45.769C83.7619 45.927 84.0655 46.0309 84.3517 46.0942C84.184 46.116 84.0167 46.1299 83.848 46.139C83.1252 46.1723 82.3987 46.067 81.7767 45.7553C81.156 45.4484 80.6599 44.9371 80.2859 44.3487C79.9079 43.7562 79.6388 43.0981 79.3764 42.425C79.1089 41.7534 78.8409 41.0897 78.6051 40.4221C78.3675 39.7578 78.1638 39.0862 78.0175 38.4114C77.873 37.7335 77.76 37.0491 77.6742 36.3728C77.3694 33.9068 77.4143 31.5092 77.5529 29.3034C77.5576 29.31 77.5655 29.3182 77.5727 29.3241C77.9571 29.6776 78.4242 29.8941 78.8808 30.0161C79.8037 30.2549 80.6766 30.1837 81.446 30.1291C82.2166 30.0689 82.9313 29.9878 83.5877 29.897C84.4389 29.7794 85.197 29.6464 85.8704 29.5087C85.8809 29.5452 85.8906 29.5793 85.903 29.6126C86.0231 29.9445 86.2131 30.2299 86.4561 30.458C86.6958 30.6844 87.0236 30.8407 87.3482 30.8505C87.9137 30.849 88.3013 30.614 88.6026 30.3879C88.9065 30.1611 89.1119 29.8519 89.1964 29.5853C89.3363 29.1446 89.2742 28.8119 89.1874 28.5865C90.2736 28.1855 90.8212 27.9283 91.1058 27.7887C91.3985 27.6389 91.4053 27.5948 91.3916 27.5566C91.3753 27.5191 91.3398 27.4923 91.0225 27.5755C90.7069 27.6554 90.1118 27.863 88.9725 28.2239C88.9699 28.2247 88.9699 28.2247 88.9673 28.2254C88.9079 28.1634 88.8544 28.1313 88.8166 28.1158C88.7483 28.0906 88.7134 28.1137 88.6824 28.1411C88.6488 28.1692 88.6243 28.1999 88.6283 28.262C88.6306 28.2798 88.6336 28.3 88.6413 28.3267C88.6562 28.3884 88.6832 28.4729 88.7162 28.5978C88.7255 28.6399 88.7337 28.6877 88.7413 28.7434C88.7676 28.9124 88.7701 29.1436 88.6626 29.4169C88.5866 29.5967 88.4653 29.7738 88.2337 29.943C88.0148 30.1085 87.6913 30.2672 87.3875 30.262C87.2358 30.2555 87.0499 30.1876 86.8743 30.0298C86.6982 29.88 86.5379 29.6598 86.4378 29.4171C86.435 29.4074 86.4304 29.4008 86.4276 29.3911C86.3812 29.2779 86.3529 29.1595 86.3445 29.0434C86.3422 28.9966 86.3399 28.9498 86.3427 28.9016C86.3453 28.8139 86.3588 28.7256 86.3756 28.6392C86.431 28.3677 86.5587 28.1071 86.7405 27.9574C86.9095 27.8115 87.1905 27.7757 87.4364 27.7816C87.6855 27.7893 87.9128 27.8374 88.0934 27.8962C88.4648 28.0111 88.6463 28.1699 88.6824 28.1411C88.7155 28.121 88.5781 27.8837 88.1965 27.6849C88.0073 27.5863 87.768 27.4968 87.4782 27.4534C87.3333 27.4318 87.1757 27.4242 87.0066 27.4437C86.8418 27.4593 86.6451 27.5183 86.485 27.6275C86.1585 27.8529 85.9797 28.1967 85.8808 28.5386C85.8383 28.6905 85.81 28.8435 85.8065 29.0053C85.1321 29.1301 84.3764 29.2519 83.525 29.3591C82.8774 29.4419 82.1742 29.5145 81.4157 29.5686C80.6591 29.6196 79.8445 29.6713 79.057 29.4597C78.669 29.3549 78.3014 29.1757 78.0046 28.9051C77.8505 28.7543 77.7209 28.5832 77.6173 28.3863L77.6166 28.3839C77.5291 28.214 77.4618 28.0278 77.4181 27.8269C77.3946 27.7255 77.3781 27.6196 77.3641 27.513C77.2726 26.7197 77.4502 25.8202 77.7777 24.9305C77.8581 24.7177 77.9482 24.4996 78.0491 24.2809C78.0484 24.2785 78.0484 24.2785 78.0503 24.2753C78.211 23.9262 78.4005 23.5714 78.6185 23.219C78.7768 22.9682 78.9551 22.7194 79.1568 22.4745C79.1561 22.472 79.1586 22.4713 79.1586 22.4713C79.4074 22.1681 79.6826 21.8704 79.9859 21.5832C81.0376 20.5781 82.4061 19.7298 83.9321 19.1209C83.9787 19.0997 84.0286 19.0801 84.0784 19.0605C84.5669 18.8678 85.074 18.7013 85.5887 18.5616L85.6118 18.555C86.2214 18.3881 86.8455 18.2618 87.4751 18.1841C87.4797 18.1906 87.4811 18.1955 87.4851 18.1996C87.6163 18.1831 87.7552 18.1644 87.8999 18.1466L87.8978 18.1392C88.0238 18.1242 88.1487 18.1147 88.2743 18.1077C88.2769 18.107 88.2769 18.107 88.2801 18.1087C88.5602 18.0889 88.8438 18.0814 89.1225 18.0859C90.8433 18.0984 92.532 18.5601 93.8619 19.4252C94.5296 19.8477 95.0977 20.3778 95.5444 20.9586C95.9828 21.539 96.2892 22.1917 96.3092 22.8421L96.3106 22.8469C96.3398 23.5 96.0362 24.0956 95.6683 24.5831C95.2953 25.0722 94.8585 25.4741 94.4408 25.8073C93.5906 26.4702 92.7919 26.8678 92.2478 27.1372C91.6996 27.4024 91.3853 27.5347 91.3916 27.5566C91.3943 27.5663 91.4771 27.5453 91.632 27.4955C91.7863 27.4434 92.0121 27.3602 92.2978 27.244C92.8653 27.0075 93.6891 26.6395 94.586 25.9845C95.0295 25.6544 95.4921 25.2556 95.9034 24.745C96.1048 24.4896 96.2946 24.2034 96.4326 23.8818C96.5093 23.7043 96.5697 23.5184 96.6054 23.3237C97.5761 24.9189 98.5051 26.8238 99.3318 29.0585C99.8363 30.4211 100.301 31.9058 100.731 33.5137V33.5137Z" fill="black" stroke="black" stroke-width="2" mask="url(#path-6-inside-1_1_65)"/>
<mask id="path-7-inside-2_1_65" fill="white">
<path d="M96.3884 35.1598C96.3779 35.0795 96.3403 35.0111 95.6032 35.0708C95.2354 35.1048 94.6917 35.1678 93.8951 35.3125C93.0982 35.4539 92.0458 35.668 90.6734 36.0362C89.923 36.2429 88.961 36.5238 87.9571 36.8763C86.9525 37.2265 85.904 37.6383 84.9626 38.0497C83.0779 38.8724 81.636 39.7015 81.6725 39.7678C81.7129 39.8442 83.2171 39.1487 85.1236 38.4317C86.0766 38.073 87.1281 37.706 88.1297 37.3881C89.1307 37.0678 90.084 36.8064 90.8245 36.6025C92.1785 36.2392 93.2129 36.012 93.9946 35.8435C94.7758 35.6716 95.3067 35.5671 95.6634 35.4811C96.3782 35.3174 96.3989 35.2401 96.3884 35.1598V35.1598Z"/>
</mask>
<path d="M96.3884 35.1598C96.3779 35.0795 96.3403 35.0111 95.6032 35.0708C95.2354 35.1048 94.6917 35.1678 93.8951 35.3125C93.0982 35.4539 92.0458 35.668 90.6734 36.0362C89.923 36.2429 88.961 36.5238 87.9571 36.8763C86.9525 37.2265 85.904 37.6383 84.9626 38.0497C83.0779 38.8724 81.636 39.7015 81.6725 39.7678C81.7129 39.8442 83.2171 39.1487 85.1236 38.4317C86.0766 38.073 87.1281 37.706 88.1297 37.3881C89.1307 37.0678 90.084 36.8064 90.8245 36.6025C92.1785 36.2392 93.2129 36.012 93.9946 35.8435C94.7758 35.6716 95.3067 35.5671 95.6634 35.4811C96.3782 35.3174 96.3989 35.2401 96.3884 35.1598V35.1598Z" fill="black"/>
<path d="M95.6032 35.0708L95.5225 34.074L95.5113 34.075L95.6032 35.0708ZM93.8951 35.3125L94.0697 36.2972L94.0738 36.2964L93.8951 35.3125ZM90.6734 36.0362L90.4143 35.0704L90.4079 35.0721L90.6734 36.0362ZM87.9571 36.8763L88.2863 37.8206L88.2884 37.8198L87.9571 36.8763ZM84.9626 38.0497L85.3627 38.9662L85.3631 38.966L84.9626 38.0497ZM81.6725 39.7678L82.5563 39.3L82.5526 39.293L82.5488 39.2861L81.6725 39.7678ZM85.1236 38.4317L85.4756 39.3678L85.4759 39.3676L85.1236 38.4317ZM88.1297 37.3881L88.4322 38.3412L88.4344 38.3405L88.1297 37.3881ZM90.8245 36.6025L90.5653 35.6366L90.5589 35.6384L90.8245 36.6025ZM93.9946 35.8435L94.2053 36.8211L94.2095 36.8202L93.9946 35.8435ZM95.6634 35.4811L95.4401 34.5063L95.4291 34.509L95.6634 35.4811ZM97.38 35.0302C97.3704 34.9565 97.3316 34.66 97.0775 34.4019C96.8523 34.1733 96.5877 34.1058 96.4562 34.0806C96.2025 34.032 95.8809 34.045 95.5225 34.0741L95.684 36.0675C95.8549 36.0537 95.9687 36.0487 96.0422 36.0482C96.1236 36.0476 96.1228 36.0531 96.0804 36.045C96.0517 36.0395 95.8446 36.0004 95.6525 35.8053C95.4314 35.5808 95.4013 35.323 95.3969 35.2895L97.38 35.0302ZM95.5113 34.075C95.1162 34.1115 94.5434 34.1784 93.7164 34.3286L94.0738 36.2964C94.8399 36.1573 95.3547 36.098 95.6952 36.0666L95.5113 34.075ZM93.7205 34.3279C92.8989 34.4736 91.8181 34.6938 90.4143 35.0704L90.9326 37.0021C92.2736 36.6423 93.2974 36.4341 94.0697 36.2972L93.7205 34.3279ZM90.4079 35.0721C89.6459 35.282 88.6597 35.5697 87.6258 35.9328L88.2884 37.8198C89.2623 37.4778 90.2001 37.2038 90.939 37.0003L90.4079 35.0721ZM87.6279 35.9321C86.5993 36.2906 85.527 36.7117 84.5622 37.1333L85.3631 38.966C86.281 38.5649 87.3057 38.1624 88.2863 37.8206L87.6279 35.9321ZM84.5626 37.1332C83.5949 37.5556 82.7386 37.9805 82.1231 38.3118C81.8171 38.4766 81.5604 38.6236 81.3753 38.7396C81.2868 38.795 81.1933 38.8566 81.1145 38.9175C81.0813 38.9431 81.0116 38.9983 80.9429 39.0738C80.9131 39.1066 80.8365 39.1933 80.7736 39.3229C80.7265 39.4201 80.5566 39.8137 80.7961 40.2495L82.5488 39.2861C82.7861 39.7178 82.6168 40.1057 82.5731 40.1958C82.5136 40.3183 82.4433 40.3966 82.4225 40.4194C82.3929 40.4519 82.3687 40.4736 82.3586 40.4824C82.3469 40.4926 82.3392 40.4987 82.3376 40.4999C82.335 40.5019 82.3414 40.4969 82.3609 40.4837C82.3792 40.4713 82.4043 40.455 82.437 40.4345C82.5708 40.3507 82.7856 40.2266 83.0711 40.0729C83.6386 39.7674 84.4456 39.3665 85.3627 38.9662L84.5626 37.1332ZM80.7886 40.2356C80.9898 40.6156 81.3375 40.7211 81.4651 40.7492C81.6083 40.7808 81.7261 40.774 81.775 40.7702C81.8827 40.7618 81.9734 40.7383 82.014 40.7274C82.1103 40.7014 82.2164 40.6639 82.3093 40.6293C82.5043 40.5568 82.772 40.4478 83.0776 40.3225C83.7006 40.0671 84.5388 39.72 85.4756 39.3678L84.7716 37.4957C83.8019 37.8604 82.9347 38.2196 82.3189 38.472C82.005 38.6007 81.7699 38.6961 81.612 38.7548C81.5739 38.769 81.5444 38.7795 81.5222 38.787C81.4986 38.795 81.4908 38.797 81.4944 38.7961C81.4965 38.7955 81.5069 38.7927 81.5234 38.7894C81.5378 38.7865 81.572 38.78 81.6188 38.7763C81.6541 38.7735 81.7609 38.7664 81.8959 38.7962C82.0154 38.8225 82.3577 38.9247 82.5563 39.3L80.7886 40.2356ZM85.4759 39.3676C86.4136 39.0146 87.4485 38.6535 88.4322 38.3412L87.8271 36.4349C86.8077 36.7585 85.7396 37.1313 84.7713 37.4959L85.4759 39.3676ZM88.4344 38.3405C89.413 38.0274 90.3472 37.7712 91.09 37.5666L90.5589 35.6384C89.8208 35.8417 88.8484 36.1082 87.825 36.4356L88.4344 38.3405ZM91.0836 37.5683C92.414 37.2114 93.4297 36.9882 94.2053 36.8211L93.7839 34.866C92.9961 35.0358 91.943 35.267 90.5653 35.6366L91.0836 37.5683ZM94.2095 36.8202C94.9547 36.6562 95.5318 36.5415 95.8976 36.4533L95.4291 34.509C95.0817 34.5927 94.5969 34.6871 93.7797 34.8669L94.2095 36.8202ZM95.8866 36.4559C96.2359 36.3759 96.5433 36.292 96.7693 36.1711C96.8874 36.108 97.1083 35.9712 97.2558 35.7037C97.4241 35.3986 97.391 35.1149 97.3801 35.0306L95.3968 35.2891C95.3911 35.2449 95.3594 35.001 95.5044 34.738C95.6286 34.5128 95.8017 34.4206 95.8265 34.4073C95.862 34.3883 95.8624 34.3937 95.7853 34.4175C95.7151 34.4391 95.6057 34.4685 95.4402 34.5064L95.8866 36.4559Z" fill="black" mask="url(#path-7-inside-2_1_65)"/>
<path d="M96.3752 37.1579C96.375 37.1579 96.3748 37.1579 96.3746 37.1579L96.364 36.7741L96.3631 36.7396L96.3615 36.7397C96.3158 36.7533 96.2245 36.8693 96.1157 37.0658C96.1047 37.0874 96.0931 37.1102 96.0813 37.1341L96.3752 37.1579ZM96.3752 37.1579C96.3754 37.1579 96.3756 37.1579 96.3758 37.1579L96.3643 36.7734L96.3633 36.7396L96.3752 37.1579ZM96.3992 37.9809C96.3608 37.726 96.4439 37.5257 96.5431 37.3286L96.892 37.4521L96.8801 36.906L96.9243 36.8491C97.007 36.8969 97.1099 36.9683 97.2354 37.0884C97.3179 37.1694 97.4032 37.2723 97.4724 37.4159C97.5064 37.4947 97.5278 37.5602 97.5369 37.6433C97.5445 37.715 97.5369 37.8015 97.5064 37.9011C97.4731 38.0082 97.4155 38.1199 97.3188 38.2186L97.3187 38.2186L97.3124 38.2253C97.2236 38.3193 97.0894 38.3971 96.9475 38.4118L96.943 38.4123C96.8114 38.4272 96.6675 38.3751 96.5864 38.3013L96.5865 38.3012L96.5811 38.2965C96.484 38.2105 96.4247 38.0986 96.3992 37.9809ZM96.6713 37.1233C96.6713 37.1233 96.6707 37.124 96.6696 37.1251C96.6707 37.1238 96.6713 37.1232 96.6713 37.1233Z" fill="black" stroke="black"/>
<mask id="path-10-inside-3_1_65" fill="white">
<path d="M96.7567 17.4705C97.0774 16.2703 96.9507 16.2158 96.7863 16.1796C96.6218 16.1434 96.4818 16.1391 96.1611 17.3393C95.9854 17.997 95.7417 19.4378 95.9062 19.474C96.0706 19.5102 96.581 18.1282 96.7567 17.4705Z"/>
</mask>
<path d="M96.7567 17.4705C97.0774 16.2703 96.9507 16.2158 96.7863 16.1796C96.6218 16.1434 96.4818 16.1391 96.1611 17.3393C95.9854 17.997 95.7417 19.4378 95.9062 19.474C96.0706 19.5102 96.581 18.1282 96.7567 17.4705Z" fill="black"/>
<path d="M96.7567 17.4705L95.7906 17.2124L95.7906 17.2124L96.7567 17.4705ZM96.7863 16.1796L97.0014 15.203L97.0014 15.203L96.7863 16.1796ZM96.1611 17.3393L95.195 17.0812L95.195 17.0812L96.1611 17.3393ZM97.7228 17.7286C97.8777 17.1491 97.9769 16.6775 97.9508 16.3166C97.9358 16.1079 97.8693 15.7774 97.5908 15.5085C97.3351 15.2615 97.0308 15.2095 97.0014 15.203L96.5712 17.1562C96.624 17.1678 96.3972 17.1362 96.2015 16.9471C95.983 16.7361 95.9589 16.5011 95.956 16.4605C95.9533 16.423 95.9604 16.4489 95.9348 16.5945C95.9112 16.7291 95.8669 16.9266 95.7906 17.2124L97.7228 17.7286ZM97.0014 15.203C96.9625 15.1944 96.6817 15.1208 96.3584 15.2247C96.0173 15.3343 95.8128 15.5712 95.6985 15.7437C95.4999 16.0436 95.3509 16.4977 95.195 17.0812L97.1272 17.5974C97.2035 17.3119 97.264 17.1175 97.3112 16.9873C97.3617 16.8478 97.3826 16.8229 97.366 16.8479C97.3475 16.876 97.2288 17.0457 96.9703 17.1288C96.7295 17.2062 96.5278 17.1466 96.5712 17.1562L97.0014 15.203ZM95.195 17.0812C95.0949 17.4558 94.9827 18.0212 94.9157 18.5016C94.8826 18.7385 94.8555 18.9898 94.8521 19.2013C94.8505 19.2984 94.8523 19.4441 94.8817 19.5929C94.8957 19.6635 94.9277 19.7993 95.0102 19.9447C95.0924 20.0896 95.2973 20.3639 95.6911 20.4506L96.1212 18.4974C96.4945 18.5796 96.682 18.8384 96.7498 18.9579C96.8179 19.0779 96.8385 19.1784 96.8437 19.2049C96.8557 19.2654 96.8509 19.2874 96.8518 19.2341C96.8533 19.1446 96.8672 18.9879 96.8965 18.7778C96.9542 18.3643 97.0516 17.8804 97.1273 17.5974L95.195 17.0812ZM95.6911 20.4506C96.0713 20.5344 96.3624 20.3831 96.4842 20.3042C96.6144 20.22 96.7019 20.1237 96.7471 20.0701C96.8418 19.9579 96.9137 19.8353 96.961 19.7487C97.063 19.5623 97.1649 19.3297 97.2551 19.1054C97.4375 18.6517 97.6228 18.1031 97.7228 17.7286L95.7906 17.2124C95.7149 17.4956 95.5572 17.9668 95.3994 18.3595C95.3194 18.5585 95.2519 18.7057 95.2065 18.7888C95.1801 18.837 95.1838 18.8215 95.2184 18.7805C95.2336 18.7625 95.293 18.6929 95.3976 18.6252C95.4938 18.5629 95.7616 18.4182 96.1212 18.4974L95.6911 20.4506Z" fill="black" mask="url(#path-10-inside-3_1_65)"/>
<mask id="path-12-inside-4_1_65" fill="white">
<path d="M97.2557 20.281C97.363 20.4041 98.2511 19.8579 98.6244 19.5569C99.3056 19.0075 99.2328 18.8963 99.1255 18.7733C99.0182 18.6501 98.9169 18.5619 98.2357 19.1113C97.8624 19.4122 97.1484 20.1579 97.2557 20.281Z"/>
</mask>
<path d="M97.2557 20.281C97.363 20.4041 98.2511 19.8579 98.6244 19.5569C99.3056 19.0075 99.2328 18.8963 99.1255 18.7733C99.0182 18.6501 98.9169 18.5619 98.2357 19.1113C97.8624 19.4122 97.1484 20.1579 97.2557 20.281Z" fill="black"/>
<path d="M97.2557 20.281L96.5019 20.9381L96.5021 20.9383L97.2557 20.281ZM98.6244 19.5569L99.252 20.3354L99.2521 20.3353L98.6244 19.5569ZM99.1255 18.7733L98.3717 19.4304L98.3719 19.4306L99.1255 18.7733ZM98.2357 19.1113L98.8634 19.8897L98.8635 19.8897L98.2357 19.1113ZM96.5021 20.9383C96.8644 21.3537 97.3551 21.3005 97.4357 21.292C97.5923 21.2753 97.7276 21.2303 97.8098 21.1998C97.987 21.1341 98.173 21.0382 98.3308 20.9494C98.6518 20.7687 99.0147 20.5267 99.252 20.3354L97.9967 18.7784C97.8607 18.888 97.593 19.0696 97.3498 19.2065C97.2255 19.2765 97.146 19.3129 97.1149 19.3244C97.0929 19.3326 97.1383 19.3123 97.2244 19.3032C97.2684 19.2985 97.3679 19.2915 97.4948 19.3188C97.6272 19.3473 97.8354 19.4243 98.0094 19.6237L96.5021 20.9383ZM99.2521 20.3353C99.4383 20.1851 99.5953 20.0472 99.7214 19.9178C99.8391 19.797 99.9771 19.6365 100.073 19.437C100.183 19.2054 100.245 18.9007 100.143 18.574C100.061 18.3101 99.8954 18.1347 99.8791 18.116L98.3719 19.4306C98.4092 19.4735 98.2925 19.358 98.2332 19.1668C98.1986 19.0554 98.1868 18.9366 98.1999 18.8197C98.2122 18.7085 98.2442 18.6245 98.2687 18.5734C98.3106 18.4858 98.3457 18.4638 98.2889 18.5222C98.2403 18.572 98.151 18.654 97.9966 18.7785L99.2521 20.3353ZM99.8793 18.1162C99.8596 18.0936 99.7135 17.9131 99.4718 17.7964C99.1821 17.6565 98.8896 17.6604 98.6515 17.7204C98.2875 17.8121 97.935 18.0691 97.608 18.3329L98.8635 19.8897C99.0177 19.7653 99.1177 19.6946 99.1782 19.6566C99.2474 19.6132 99.2249 19.6384 99.1401 19.6598C99.0909 19.6722 99.0113 19.6857 98.9105 19.6791C98.8049 19.6721 98.6995 19.6444 98.6022 19.5974C98.4309 19.5147 98.3377 19.3914 98.3717 19.4304L99.8793 18.1162ZM97.6081 18.3328C97.3706 18.5243 97.0586 18.8265 96.8164 19.1003C96.6978 19.2345 96.5649 19.3964 96.464 19.5571C96.4177 19.6309 96.3431 19.7587 96.2951 19.9163C96.2678 20.0059 96.1226 20.5029 96.5019 20.9381L98.0096 19.624C98.1867 19.8272 98.2367 20.0521 98.2438 20.2042C98.2505 20.3458 98.2227 20.4519 98.2083 20.4992C98.1802 20.5913 98.1467 20.6383 98.1581 20.6201C98.1726 20.597 98.2215 20.5306 98.3146 20.4253C98.4959 20.2203 98.7276 19.9992 98.8634 19.8897L97.6081 18.3328Z" fill="black" mask="url(#path-12-inside-4_1_65)"/>
<path d="M99.9361 21.9337C99.9361 21.9337 99.9361 21.9337 99.9361 21.9337L99.944 21.8439L99.9361 21.9337Z" fill="black" stroke="black"/>
<path d="M76.5315 42.3827C76.4864 42.3837 76.4453 42.3788 76.4082 42.3699C76.4276 42.0739 76.4739 41.8838 76.5208 41.8828L76.5315 42.3827Z" fill="black" stroke="black"/>
<mask id="path-16-inside-5_1_65" fill="white">
<path d="M74.941 44.8086C74.7896 44.8861 75.2134 45.9648 75.4681 46.4382C75.9328 47.302 76.0653 47.2573 76.2167 47.1797C76.3681 47.1022 76.4811 47.0213 76.0164 46.1575C75.7617 45.6841 75.0924 44.7311 74.941 44.8086V44.8086Z"/>
</mask>
<path d="M74.941 44.8086C74.7896 44.8861 75.2134 45.9648 75.4681 46.4382C75.9328 47.302 76.0653 47.2573 76.2167 47.1797C76.3681 47.1022 76.4811 47.0213 76.0164 46.1575C75.7617 45.6841 75.0924 44.7311 74.941 44.8086V44.8086Z" fill="black"/>
<path d="M75.4681 46.4382L76.3487 45.9644L76.3487 45.9644L75.4681 46.4382ZM76.2167 47.1797L75.761 46.2895L75.7604 46.2899L76.2167 47.1797ZM76.0164 46.1575L75.1358 46.6312L75.1358 46.6313L76.0164 46.1575ZM74.4853 43.9185C74.2076 44.0606 74.0645 44.2869 73.9971 44.4475C73.933 44.6002 73.9169 44.7374 73.9118 44.818C73.9015 44.979 73.9241 45.1248 73.9408 45.2138C73.9772 45.4075 74.0434 45.6202 74.1087 45.8062C74.2416 46.1849 74.4313 46.6219 74.5874 46.912L76.3487 45.9644C76.2501 45.7812 76.1005 45.4421 75.9958 45.1437C75.9422 44.9912 75.915 44.8901 75.9065 44.8449C75.9008 44.8145 75.9131 44.8596 75.9077 44.945C75.905 44.9877 75.895 45.0934 75.8412 45.2215C75.7842 45.3575 75.6555 45.5663 75.3967 45.6988L74.4853 43.9185ZM74.5874 46.912C74.8108 47.3271 75.0453 47.7136 75.3396 47.9464C75.5287 48.0959 75.8011 48.2306 76.1405 48.2173C76.4279 48.206 76.6449 48.0839 76.673 48.0695L75.7604 46.2899C75.7128 46.3143 75.8564 46.2269 76.0619 46.2188C76.3193 46.2087 76.5011 46.3151 76.5802 46.3776C76.6386 46.4238 76.6399 46.444 76.5827 46.3612C76.5316 46.2873 76.4558 46.1635 76.3487 45.9644L74.5874 46.912ZM76.6724 48.0698C76.6975 48.0569 76.9286 47.9504 77.1069 47.7189C77.3211 47.4407 77.3639 47.1299 77.3445 46.8846C77.3273 46.6677 77.2601 46.4649 77.1928 46.2976C77.1212 46.1195 77.0223 45.9164 76.8971 45.6837L75.1358 46.6313C75.2429 46.8304 75.3041 46.9614 75.3373 47.0438C75.3747 47.137 75.357 47.1213 75.3507 47.0423C75.347 46.9955 75.3462 46.9131 75.3715 46.8105C75.3983 46.7016 75.4488 46.5941 75.5223 46.4986C75.6514 46.331 75.8115 46.2637 75.761 46.2895L76.6724 48.0698ZM76.8971 45.6837C76.741 45.3936 76.4804 44.9935 76.2369 44.6724C76.1171 44.5143 75.9762 44.3416 75.8353 44.2042C75.7701 44.1406 75.663 44.0427 75.5269 43.9627C75.4588 43.9227 75.3403 43.8612 75.1841 43.8278C75.0226 43.7933 74.76 43.7778 74.4853 43.9185L75.3967 45.6988C75.1409 45.8297 74.9013 45.8125 74.7664 45.7837C74.6367 45.756 74.5484 45.7075 74.5136 45.687C74.444 45.6462 74.4161 45.6138 74.4389 45.636C74.474 45.6702 74.5448 45.7508 74.643 45.8805C74.8358 46.1348 75.0371 46.4479 75.1358 46.6312L76.8971 45.6837Z" fill="black" mask="url(#path-16-inside-5_1_65)"/>
</g>
<defs>
<filter id="filter0_d_1_65" x="60.1272" y="5.84473" width="52.5284" height="52.5284" filterUnits="userSpaceOnUse" color-interpolation-filters="sRGB">
<feFlood flood-opacity="0" result="BackgroundImageFix"/>
<feColorMatrix in="SourceAlpha" type="matrix" values="0 0 0 0 0 0 0 0 0 0 0 0 0 0 0 0 0 0 127 0" result="hardAlpha"/>
<feOffset dy="4"/>
<feGaussianBlur stdDeviation="2"/>
<feComposite in2="hardAlpha" operator="out"/>
<feColorMatrix type="matrix" values="0 0 0 0 0 0 0 0 0 0 0 0 0 0 0 0 0 0 0.25 0"/>
<feBlend mode="normal" in2="BackgroundImageFix" result="effect1_dropShadow_1_65"/>
<feBlend mode="normal" in="SourceGraphic" in2="effect1_dropShadow_1_65" result="shape"/>
</filter>
<clipPath id="clip0_1_65">
<rect width="36" height="36" fill="white" transform="translate(64.1272 15.7677) rotate(-16)"/>
</clipPath>
</defs>
</svg>
